<?xml version="1.0" encoding="utf-8"?>
<!-- Generator: Adobe Illustrator 26.0.2, SVG Export Plug-In . SVG Version: 6.00 Build 0)  -->
<svg version="1.1" id="Layer_1" xmlns="http://www.w3.org/2000/svg" xmlns:xlink="http://www.w3.org/1999/xlink" x="0px" y="0px"
	 viewBox="0 0 527.26 141.73" style="enable-background:new 0 0 527.26 141.73;" xml:space="preserve">
<style type="text/css">
	.st0{display:none;}
	.st1{fill:#FFFFFF;}
	.st2{font-family:'RobotoCondensed-Bold';}
	.st3{font-size:56px;}
	.st4{font-family:'RobotoCondensed-Light';}
	.st5{letter-spacing:1;}
</style>
<g>
	<path d="M71.86,70.7c-0.5-0.5-0.99-1.02-1.5-1.5c-1.61-1.52-2.91-3.3-3.61-5.58c-0.2-0.65-0.48-1.32-0.88-1.81
		c-0.37-0.45-0.98-0.98-1.44-0.94c-2.65,0.24-5.11-0.83-7.66-1.21c-0.58-0.09-1.15-0.2-1.62-0.28c-0.64,0.83-1.18,1.67-1.86,2.33
		c-0.32,0.31-0.91,0.25-1.55,0.4c0.65-1.55,1.35-2.66,2.6-2.76c-0.79-0.98-1.64-2.05-2.49-3.11l0.03,0.03c-0.84-1.5-2-2.6-3.39-3.41
		c-0.09-0.07-0.19-0.13-0.28-0.2c-1.31-1.16-2.9-1.25-4.45-1.44c-1.16-0.14-2.34-0.14-3.51-0.19c-0.99-0.05-1.81,0.34-2.45,1.2
		c-0.22,0.29-0.46,0.57-0.7,0.84c-1.1,1.24-2.33,2.05-3.96,1.47l0.03,0.03c-1.23-1.5-2.35-1.79-3.94-1.06
		c-0.74,0.34-1.49,0.66-2.26,0.9c-1.45,0.46-2.63,0.12-3.76-1.09c2,1.16,3.72,0.31,5.4-0.89c1.24-0.88,2.47-0.87,3.74-0.02
		c0.85,0.57,1.76,0.83,2.64,0.02l-0.03,0.03c0.81-0.91,1.72-1.74,2.41-2.76c0.5-0.73,0.12-1.6-0.47-2.13
		c-0.95-0.88-1.2-1.95-0.99-3.26c0.07-0.4,0.04-0.83,0.03-1.25c-0.03-0.82-0.39-1.3-1.14-1.35c-0.15-0.01-0.31-0.03-0.46-0.05
		c-2.6-0.37-4-2.11-4.18-5.34c1.05,1.65,1.88,3.41,4.04,3.61c-1.54-2.68-2.96-5.22-0.93-8.16c1.97,2.12,2.41,5.16,1.17,8.15
		c0.85,0.53,1.7,1.06,2.62,1.63c0.17-1.92,0.33-3.93,2.44-4.54c0.34,2.05-0.4,3.73-2.08,4.91c0.09,1.12,0.17,2.17,0.25,3.22
		c0.01,0.1,0.01,0.21,0.01,0.31c-0.01,1.58,1.42,2.01,1.97,3.15c0.66,1.36,1.73,1.55,2.95,1.13c1.92-0.66,3.73-0.45,5.52,0.68
		c0.9,0.57,1.94,0.84,2.92,1.25c0.06-0.11,0.11-0.22,0.17-0.33c-0.2-0.37-0.37-0.77-0.6-1.11c-1.1-1.64-1.71-3.44-1.63-5.53
		c0.05-1.44-0.28-2.77-1.19-3.84c-0.8-0.94-1.74-1.31-2.93-1.05C43.9,40,42.91,40.05,41.94,40c-0.84-0.05-1.3-0.72-1.39-1.67
		c-0.01-0.14-0.04-0.28-0.03-0.42c0.11-2.31-0.17-4.45-2.03-5.93c1.55,0.75,2.76,1.69,2.97,3.82c0.33,3.21,0.58,3.33,3.32,2.69
		c1.97-0.47,3.58,0.57,4.37,2.84c0.92,2.62,1.04,2.65,2.81,0.73c1.23-1.33,2.48-1.53,3.88-0.49c-1.84-0.47-2.87,0.61-3.64,2.24
		c-0.2,0.41-0.56,0.74-0.87,1.07c-1.18,1.27-1.2,3.15,0.08,4.25c1.05,0.91,1.45,2.1,1.66,3.48c0.48,3.12,2.67,4.69,5.45,3.91
		c0.76-0.21,1.12-0.82,1.21-1.65c0.15-1.28-0.22-2.41-1.07-3.19c-1.27-1.15-1.41-2.53-0.92-4.11c0.23-0.73,0.13-1.21-0.46-1.66
		c-0.74-0.57-1.07-1.39-0.78-2.44c1.31,0.74,1.86,1.91,1.64,3.45c-0.23,1.66-0.14,3.11,1.26,4.25c1.36,1.11,2.06,2.63,1.41,4.66
		c-0.29,0.92,0.4,1.24,1.03,1.35c0.82,0.14,1.66,0.17,2.49,0.2c2.99,0.13,4.56,1.22,5.64,5.31c0.14,0.54,0.5,1.02,0.8,1.49
		c0.14,0.22,0.36,0.38,0.56,0.54c1.71,1.4,3.42,2.79,5.26,4.1c-1.28-2.36-2.52-4.75-3.84-7.07c-0.81-1.42-1.29-2.92-1.33-4.6
		c-0.03-1.46-0.34-2.72-1.55-3.56c-0.79-0.55-1.02-1.53-1.07-2.55c-0.19-4.07,0.11-3.52-2.76-5.6c-1.38-1-2.03-2.37-2.13-4.26
		c-0.07-1.36-0.38-2.76-0.84-4.02c-0.58-1.59-2.43-1.77-3.47-0.51c-1.46,1.77-3.34,1.7-4.64-0.22c-0.4-0.59-0.68-1.27-1.12-2.11
		c0.87,0.82,1.5,1.56,2.25,2.08c1.1,0.75,2.36,0.26,2.91-0.97c0.46-1.05,0.21-1.98-0.68-2.59c-0.52-0.36-1.01-0.77-1.52-1.15
		l0.03,0.03c-1.26-2.1-1.04-4.38-0.58-6.71c0.11,0.87,0.19,1.75,0.33,2.62c0.43,2.71,1.73,4.7,3.93,5.94
		c0.47,0.26,0.92,0.56,1.38,0.83c1.82,1.04,2.83,2.69,3.05,4.99c0.16,1.61,0.53,3.15,1.6,4.35c0.17,0.19,0.38,0.32,0.58,0.48
		l-0.03-0.03c0.83,0.43,1.64,1.18,2.48,1.21c1.76,0.07,3.55-0.1,5.3-0.42c1.32-0.24,2.02-1.39,2.11-2.92
		c0.03-0.59,0.02-1.18,0.04-1.78c0.03-1.21-0.4-2.07-1.4-2.57c-1.13-0.56-1.72-1.58-1.67-2.98c0.07-2-0.82-3.2-2.38-3.91
		c-0.14-0.06-0.26-0.17-0.46-0.3c2.02,0.09,3.02,1.03,3.51,3.06c0.21,0.89,0.48,1.84,0.95,2.55c0.76,1.14,1.69,0.98,2.4-0.22
		c0.9-1.53,0.74-3.19,0.18-4.72c-0.53-1.45-0.36-2.48,0.65-3.52c0.93-0.95,0.66-2.23,0.41-3.5c0.95,1.32,1.08,2.73,0.42,4.13
		c-0.86,1.82-0.36,5.25,1.01,6.55c0.27,0.26,0.72,0.32,1.1,0.37c1.12,0.15,2.25,0.3,3.38,0.32c0.47,0.01,1.05-0.19,1.4-0.53
		c1.74-1.69,2-1.82,4.5-1.39c-0.56,0.22-0.98,0.32-1.34,0.52c-0.76,0.43-1.55,0.84-2.24,1.4c-1.11,0.89-2.27,1.39-3.63,1.15
		c-1.23-0.22-2.44-0.31-3.63,0.29c-1.13,0.57-1.72,1.48-1.77,2.91c-0.04,1.28-0.07,2.59-0.31,3.83c-0.51,2.57-2.01,3.89-4.33,4.05
		c-2.12,0.14-2.07,0.13-1.71,2.52c0.19,1.28,0.7,2.29,1.52,3.14c1.71,1.75,2.47,3.95,2.49,6.52c0.01,1.09,0.22,2.06,1.07,2.85
		c0.09-0.6,0.08-1.17,0.26-1.65c0.17-0.47,0.54-0.84,0.95-1.45c0.22,1.54,0.1,2.61-0.95,3.21c1.05,1.71,2.1,3.4,3.19,5.18
		c0.08-1.1,0.11-2.13,0.24-3.14c0.3-2.36,1.35-3.88,3.42-4.3c2.2-0.44,3.1-1.81,3.31-4.33c0.14-1.73,0.4-3.45,0.55-5.18
		c0.04-0.38-0.05-0.83-0.2-1.18c-0.33-0.74-0.74-1.44-1.13-2.19c-1.48,0.36-3.02,0.94-4.14-1.06c1.49-0.46,2.85-0.63,3.88,0.65
		c0.11-1.8,0.23-3.67,0.37-5.77c-0.62-0.65-1.81-1.3-1.25-3.32c0.55,0.83,0.95,1.54,1.44,2.13c0.6,0.72,0.28,1.5,0.24,2.26
		c-0.08,1.53-0.15,3.06,0.5,4.5c0.63,1.38,1.64,1.81,2.83,1.1c4.05-2.43,7.33-5.65,8.59-10.9c0.15-0.64,0.24-1.29,0.35-1.94
		c0.33-1.92-0.1-3.43-1.73-4.38c-2.06-1.2-2.42-3.39-2.46-5.75c0.35,0.84,0.67,1.69,1.06,2.51c1.35,2.88,3.68,3.63,5.98,1.68
		c2.27-1.93,4.78-2.8,7.54-3.03c0.23-0.02,0.47,0,0.72,0.06c-2.67,0.95-5.4,1.72-7.72,4.18c2.61-0.97,4.99-1.71,7.02,0.82
		c-2.81,1.78-4.73,1.59-7.15-0.72c-1.57,1.58-1.87,3.83-2.53,6.01c0.85-0.46,1.57-1.05,2.36-1.23c0.75-0.18,1.58,0.06,2.37,0.26
		c-1.38,1.6-2.84,2.62-4.79,1.37c-0.45,1.46-0.86,2.8-1.28,4.14c-0.53,1.72-1.42,3.13-2.68,4.3c-1.5,1.39-2.93,2.88-4.4,4.31
		c-1.78,1.74-2.51,3.99-2.55,6.59c-0.02,0.97,0,1.95,0,3.1c1.73-1.5,3.44-2.91,5.76-1.54c-1.68,1.78-3.35,3.31-5.84,1.8
		c-0.47,2.39-2.55,2.95-3.82,4.57c1.28,0.17,2.58,0.12,3.18,1.68c-1.39,0.5-2.31,0.11-3.43-1.48c-1.56,1.46-2.61,3.17-2.65,5.56
		c-0.02,1.46-0.08,2.93-0.2,4.38c-0.22,2.68,0.66,5,1.78,7.23c0.47,0.93,1.28,1.06,1.8,0.17c1.08-1.83,2.57-3.16,3.95-4.64
		c0.5-0.53,0.66-1.46,0.97-2.21c0.44-1.06,0.88-2.12,1.32-3.18l-0.02,0.02c1.07-0.8,1.87-1.82,2.43-3.16
		c0.56-1.34,1.57-2.16,2.88-2.54c2.08-0.61,2.68-1.97,2.04-4.31c-0.26-0.95-0.36-1.96-0.53-2.94l-0.02,0.03
		c0.65-2.1,1.11-4.2,0.86-6.5c-0.19-1.7,0.63-2.97,2.03-3.75c1.79-1,1.78-1.03,1.58-3.37c-1.43-0.43-3.17-0.5-3.51-2.93
		c1.4,0.26,2.69,0.55,3.48,2.27c0.21-1.37,0.39-2.56,0.57-3.81c0,1.4,0,2.71,0,4.01c0,0.21,0.02,0.42,0.05,0.62
		c0.25,1.84,0.44,1.96,1.89,1.22c0.53-0.27,1.06-0.55,1.88-0.98c-0.52-0.47-1.04-0.78-1.32-1.26c-0.25-0.45-0.24-1.09-0.4-1.9
		c1.24,0.76,1.85,1.65,1.84,3.06c0.96-0.48,1.85-0.93,2.74-1.37l-0.02-0.02c-0.42,0.48-0.77,1.09-1.26,1.43
		c-1.81,1.26-3.66,2.42-5.5,3.62c-0.59,0.38-1.22,0.7-1.76,1.14c-0.78,0.63-1.07,1.54-1.11,2.63c-0.06,1.8-0.18,3.59-0.34,5.38
		c-0.1,1.08-0.01,2.05,0.62,2.95c1.51,2.14,1.41,2.94-0.46,4.66c-0.06,0.06-0.1,0.15-0.18,0.28c1.64,0,3.25,0.18,4.81-0.05
		c1.9-0.28,3.24-1.8,4.35-3.44c0.35-0.52,0.36-1.46,0.33-2.19c-0.09-1.87-0.51-3.77-0.36-5.61c0.12-1.49-0.1-2.42-1.18-3.27
		c-0.93-0.73-1.05-1.88-0.75-3.27c1.25,1.04,2.32,2.02,2.24,4.09c0.2-0.33,0.3-0.5,0.41-0.67c1.24-1.82,2.34-3.79,3.76-5.41
		c1.89-2.16,2.63-4.72,2.89-7.6c0.04-0.44,0.25-0.86,0.38-1.29l-0.02-0.03c-0.04,2.29,0.1,4.6-0.88,6.89
		c2.41-0.72,4.74-0.87,7.11-0.41c-1.01,0.19-2.02,0.36-3.03,0.56c-4.47,0.89-4.9,1.2-7.88,5.07c-2.32,3.01-2.12,6.44-1.45,9.98
		c0.03,0.18,0.18,0.33,0.36,0.63c0.31-0.39,0.58-0.7,0.82-1.03c1.16-1.64,2.66-2.48,4.52-2.29c1.5,0.15,2.77-0.19,3.83-1.54
		c0.42-0.54,1.11-0.89,1.73-1.14c0.91-0.36,1.45-1.02,1.71-2.02c0.2-0.77,0.39-1.54,0.52-2.32c0.26-1.56,1.17-2.2,2.46-2.36
		c0.83-0.1,1.67-0.1,2.48-0.32c1.1-0.29,2.18-0.74,3.2-1.1c-0.65,0.94-1.53,1.75-2.76,2.04c-0.9,0.22-1.8,0.46-2.67,0.8
		c-0.84,0.33-1.29,1.03-1.17,2.1c0.18,1.55-0.43,2.6-1.6,3.34c-0.61,0.39-1.2,0.86-1.76,1.34c-0.47,0.4-0.56,0.94,0.07,1.19
		c1.62,0.65,3.24,1.35,4.91,1.77c1.08,0.27,1.86-0.77,2.59-1.56c1.03-1.11,2.3-1.31,3.63-1.39c-1.4,0.52-2.42,1.53-3.37,2.78
		c-1.54,2.02-3.7,2.36-5.82,1.16c-0.68-0.38-1.38-0.73-2.29-1.21c0.92,2.5,1.48,4.8-0.63,6.68c-1.49-2.38-1.4-4,0.43-6.71
		c-1.56-0.64-3.07-1.2-4.72-0.36c-0.66,0.33-1.44,0.35-2.13,0.62c-0.53,0.21-1.14,0.47-1.47,0.93c-1.59,2.15-3.1,4.38-4.64,6.58
		c0.02,0,0.21,0.03,0.39,0.05c1.62,0.2,3.23,0.44,4.85,0.6c0.88,0.09,1.8,0.19,2.67,0.04c2.59-0.47,4.98,0.06,7.16,1.67
		c0.85,0.62,1.62,0.67,2.49,0.23c0.67-0.34,1.34-0.65,2.01-0.98l-0.03,0.03c1.31-0.5,1.56-0.85,1.5-2.31
		c-0.09-2.06,0.74-3.45,2.46-4.43c-0.38,0.69-0.71,1.25-0.99,1.83c-0.47,0.96-0.72,1.92-0.6,3.09c0.06,0.62-0.32,1.52-0.76,1.95
		c-1.04,1.01-2.25,1.81-3.5,2.79c0.87,0.74,1.7,1.64,2.69,2.19c0.52,0.3,1.32,0.08,1.97-0.06c1.26-0.27,2.52-0.55,3.67,0.3
		c0.57,0.42,1.14,0.96,1.52,1.59c0.46,0.76,1.01,1.09,1.78,1.01c1.47-0.15,2.79-0.72,3.96-1.74l-0.03,0.04
		c0.71-0.29,1.42-0.58,2.26-0.93c-2.35,2.84-4.84,4.74-8.39,3.31c-0.39,1.08-0.69,2.12-0.02,3.09c1.69,2.44,1.5,4.35,0.02,7
		c-0.11,0.2-0.24,0.4-0.36,0.61c0.42,0.88,0.98,1.73,0.28,2.83c-0.77-1.1-0.66-2.2-0.31-3.36c0.31-1.04,0.58-2.11,0.78-3.18
		c0.2-1.09-0.31-1.97-0.71-2.93c-0.48-1.13-0.76-2.42-0.89-3.67c-0.19-1.87-1.12-2.83-2.78-2.54c-0.88,0.16-1.74,0.39-2.77,0.62
		c1.18,0.65,2.34,1.16,2.39,2.9c-1.45-0.39-2.57-1.01-2.64-2.61c-0.75-0.5-1.38-0.84-1.92-1.31c-1.27-1.1-2.47-2.3-3.75-3.39
		c-0.5-0.43-1.13-0.69-1.7-1.02l0,0c-1.09-0.1-2.23-0.47-3.26-0.25c-3.7,0.79-7.34,0.56-11-0.24c-0.67-0.15-1.49,0.03-2.13,0.34
		c-2.02,1-4.09,1.68-6.27,2.02c-0.98,0.15-1.94,0.65-2.87,1.07c-1,0.45-1.46,1.31-1.28,2.57c0.2,1.4-0.16,2.63-1.08,3.61
		c-0.26,0.28-0.59,0.48-0.9,0.68c-3.6,2.31-6.74,5.12-8.48,9.56c-1.32,3.36-1.11,6.68,0.1,10.05c-0.5-7.44,0.88-13.94,6.96-18.09
		c-0.8,1.46-1.57,2.94-2.41,4.38c-0.36,0.62-0.53,1.19-0.14,1.82c0.43,0.69,1.05,0.7,1.65,0.37c1.41-0.8,2.86-0.93,4.4-0.68
		c0.56,0.09,1.17-0.24,1.76-0.39l-0.03,0.03c0.38-0.2,0.8-0.33,1.14-0.6c1.38-1.1,2.75-2.23,4.1-3.38c0.48-0.41,0.91-0.9,1.43-1.43
		c-1.29-1.14-2.62-2.19-2.04-4.32c1.38,0.59,2.15,1.89,2.3,4.1c1.42-1.69,3.14-2.26,5.12-2.2c-0.54-1.82-1.22-3.5,0.39-5.08
		c0.55,1.61,0.95,3.11-0.04,4.65c0.06,0.07,0.12,0.13,0.18,0.2c0.38-0.41,0.8-0.79,1.12-1.25c1.04-1.48,2.15-2.82,3.97-2.9
		c0.61-0.03,1.22,0.05,1.88,0.08c-0.07,0.11-0.1,0.19-0.13,0.19c-1.88,0.23-3.34,1.07-4.56,2.89c-0.8,1.19-2.27,1.83-3.47,2.64
		c-0.74,0.49-1.47,0.95-1.65,1.97c-0.05,0.27,0.16,0.82,0.33,0.86c1.52,0.39,3.05,0.69,4.55,1.01c1.04-3.67,1.58-4.41,3.39-4.79
		c0.1,2.02-0.9,3.71-2.68,4.51c1.29,0.39,2.23-0.03,3-1.33c1.2-2.04,2.76-3.39,5.05-3.13c0.53,0.06,1.13,0.24,1.53,0.61
		c1.67,1.53,3.45,1.46,5.31,0.65c2.01-0.88,4.13-0.32,5.9,1.76c-2.19-1.01-4.2-1.03-6.23-0.39c-0.59,0.19-1.21,0.24-1.82,0.37
		c-1.25,0.26-2.38-0.04-3.4-0.92c-0.22-0.19-0.46-0.36-0.71-0.5c-1.25-0.68-2.23-0.11-2.47,1.23c0.79,0.57,1.5,1.12,2.23,1.62
		c0.86,0.59,1.75,1.14,2.62,1.71l-0.03-0.03c0.71,0.08,1.43,0.29,2.14,0.23c2.32-0.2,3.51,0.36,4.82,2.4
		c-1.24-0.43-2.51-0.86-3.78-1.3c-0.05,0.09-0.11,0.19-0.16,0.28c1.42,1.32,2.75,2.7,2.23,5.07c-1.87-0.8-2.68-2.31-2.74-5.15
		c-0.81-0.09-1.62-0.18-2.44-0.28c-1.31-0.17-2.52-0.59-3.49-1.71c-0.76-0.88-1.7-1.12-2.72-0.62c-1.11,0.55-2.2,1.17-3.48,1.85
		c2.92,2.25,5.54,4.39,4.82,8.93c-2.88-2.05-5.61-4.02-4.73-8.67c-2.03,0.82-3.93,0.73-5.8,0.21c-0.82-0.23-1.63-0.63-2.37-1.1
		c-0.78-0.51-1.53-0.67-2.38-0.35c-1.67,0.63-3.13,1.55-4.23,3.2c-0.45,0.68-1.17,1.22-1.87,1.58c-1.51,0.78-3.09,1.38-4.62,2.12
		c-0.7,0.34-1.37,0.81-1.98,1.32c-0.97,0.82-1.52,1.9-1.32,3.35c0.05,0.38,0.09,0.77,0.04,1.15c-0.23,2.11,0.1,3.9,1.55,5.5
		c1.02,1.13,0.76,2.81,0.38,4.28c-0.44,1.71-0.52,3.25,0.39,4.89c0.43,0.78,0.43,2.05,0.27,3.03c-0.28,1.71,0.1,2.9,1.38,3.84
		c0.61,0.45,1.15,1.04,1.69,1.62c1.03,1.11,2.39,1.17,3.66,1.55c0.99,0.3,2.09,0.62,2.83,1.34c1.85,1.81,3.89,2.76,6.47,2.63
		c-1.12,0.63-3.53,0.53-4.75,0.01c-0.82-0.35-1.7-0.54-2.55-0.82c-0.53-0.17-1.09-0.3-1.56-0.6c-1.22-0.78-2.53-0.57-3.81-0.69
		c-0.05,0.1-0.1,0.19-0.15,0.29c0.52,0.49,1.03,0.97,1.73,1.64c-1.52-0.25-2.94-0.15-4.04-1.2c-1.06-1.01-2.32-1.24-3.59-1.5
		c-0.93-0.19-1.67,0.18-2.17,1.17c-0.49,0.97-1.09,1.85-2.38,2.04c0.41-0.51,0.72-0.87,0.99-1.26c0.42-0.63,0.25-1.22-0.44-1.26
		c-0.58-0.03-1.24,0.06-1.75,0.35c-1,0.56-1.95,1.02-3.13,1.03c-1.01,0.01-2.01,0.51-3.14,0.82c0.8-0.67,1.53-1.27,2.39-1.98
		c-0.32-0.08-0.48-0.18-0.62-0.16c-1.67,0.27-3.47-0.09-4.94,1.27c-0.26,0.24-0.7,0.31-1.05,0.32c-4.34,0.09-8.68,0.16-13.02,0.23
		c-1.29,0.02-2.58,0-3.88-0.16c2.38-0.67,4.73-1.52,7.21-0.61c1.87,0.68,3.63,0.55,5.25-0.88c0.52-0.46,1.2-0.67,1.79-1.05
		c0.47-0.31,1.02-0.59,1.33-1.06c0.48-0.73,1.07-1.16,1.78-1.54c3.2-1.71,5.98-4.81,6.99-7.85c-0.16,0.24-0.29,0.52-0.48,0.72
		c-0.96,1.01-1.9,2.05-2.92,2.97c-1.36,1.23-2.79,2.36-4.08,3.44c0.09-0.17,0.28-0.56,0.49-0.93c0.23-0.41,0.46-0.83,0.74-1.2
		c1.29-1.68,1.45-3.65,1.12-5.71c-0.23-1.42-0.1-2.7,0.44-4.05c0.48-1.21,0.81-2.59,0.87-3.92c0.19-4.23-0.96-8.04-3.7-10.97
		c-1.35-1.44-2.3-2.97-2.58-5.01c-0.12-0.91-0.47-1.25-1.32-1.22c-1.29,0.04-1.69-0.33-2.33-1.91c1.15,0.31,2.12,0.57,3.07,0.82
		c-0.22-1.16-0.81-2.38-1.91-3.06c-1.74-1.08-3.17-2.5-4.25-4.37c-0.08-0.14-0.2-0.26-0.31-0.39c-1.15-1.33-1.86-1.27-2.84,0.23
		c-0.51,0.78-1,1.59-1.52,2.37c-0.59,0.9-1.38,1.11-2.3,0.74c-0.61-0.24-1.23-0.46-1.82-0.77c-0.73-0.38-1.3-0.28-1.74,0.52
		c-0.14,0.27-0.37,0.48-0.51,0.74c-0.88,1.63-2.13,2.37-3.85,2.36c-0.59-0.01-1.26,0.51-1.78,0.96c-0.78,0.67-1.46,1.5-2.2,2.29
		c1.16,2.9,2.46,5.85-0.13,8.69c-1.64-2.11-1.73-5.69-0.13-8.49c-0.3,0.12-0.51,0.2-0.71,0.29c-1.94,0.88-3.55,0.44-4.88-1.35
		c-1.04-1.4-1.46-1.52-2.95-0.77c-0.53,0.27-1.05,0.59-1.56,0.92c-0.49,0.32-0.97,0.67-1.58,0.81c1.02-0.98,2.01-2,3.06-2.94
		c0.62-0.55,1.35-0.46,2.01-0.05c0.62,0.38,1.23,0.81,1.81,1.26c1.47,1.15,2.99,1.21,4.53,0.24c0.84-0.54,1.64-1.17,2.69-1.92
		c-1.24-0.3-2.19-0.53-3.14-0.76c-1.29-0.32-1.52-0.6-1.71-2.05c-0.02-0.14-0.04-0.28-0.06-0.41c-0.29-1.7-0.66-2.03-2.14-1.69
		c-1.57,0.36-2.85-0.43-4.04-0.99c1.66-0.12,3.42-0.21,5.18-0.39c0.81-0.08,1.41,0.19,1.76,1c0.33,0.75,0.6,1.53,0.83,2.32
		c0.25,0.85,0.74,1.46,1.49,1.51c1.5,0.11,3.01,0.16,4.5,0.05c0.46-0.03,0.98-0.58,1.3-1.04c0.6-0.88,1.08-1.86,1.6-2.81
		c0.8-1.44,1.6-1.63,2.84-0.67c1.93,1.5,2.26,1.47,3.97-0.38c0.49-0.53,0.98-1.06,1.43-1.64c0.64-0.82,0.52-1.19-0.43-1.52
		c-0.18-0.06-0.36-0.11-0.54-0.14c-1.03-0.17-1.78-0.81-2.21-1.85c-0.85-2.04-2.12-3.64-3.69-5c-0.78-0.67-1.45-1.51-2.1-2.35
		c-0.83-1.08-1.79-1.37-2.89-0.74c-0.81,0.46-1.63,0.99-2.29,1.69c-1.58,1.67-3.5,1.59-4.73-0.42c-0.83-1.35-2-1.65-3.29-1.71
		c-0.67-0.03-1.24,0.35-1.41,1.11c-0.39,1.81-1.32,3.18-2.53,4.36l0.02-0.02c-0.39,0.36-0.86,0.65-1.15,1.09
		c-1.32,2.02-3.05,2.16-5.23,1.51c-0.68-0.2-1.3-0.66-1.98-0.8c-0.68-0.14-1.4-0.03-2.11-0.1c1.12-0.53,2.26-0.97,3.51-0.58
		c0.47,0.15,0.94,0.32,1.42,0.44c0.96,0.25,1.82,0.04,2.55-0.78c0.96-1.08,1.97-2.1,2.9-3.21c0.6-0.71,0.45-1.15-0.39-1.37
		c-0.54-0.14-1.09-0.22-1.64-0.26c-1.12-0.08-2.11-0.42-2.81-1.48L30,64.57c-0.62-2.08-1.07-2.42-2.98-2.09
		c-0.64,0.11-1.26,0.35-1.89,0.51c-1.32,0.34-2.51-0.04-3.63-0.88c1.54,0.68,2.97,0.12,4.4-0.46c0.2-0.08,0.41-0.16,0.61-0.24
		c2.84-1.13,3.08-1.08,4.92,1.58c0.74,1.07,1.6,1.55,3.02,1.21c-1.61-1.2-3.07-2.38-2.51-4.91c1.67,1.1,2.97,2.39,2.77,4.97
		c0.96-0.39,1.79-0.71,2.7-1.08c-0.46-1.08-0.78-2.12-1.32-2.98c-0.31-0.5-0.94-0.85-1.49-1.03c-0.76-0.25-1.58-0.3-2.37-0.4
		c-1.32-0.16-2.16-1.05-2.95-2.54c1.74,1.25,3.44,1.41,5.21,1.44c0.64,0.01,1.38,0.61,1.89,1.15c0.92,0.97,1.71,2.1,2.54,3.18
		c0.63,0.82,1.33,1.32,2.36,1.42c0.71,0.07,1.45,0.52,2.07,0.99c1,0.75,1.8,2.02,3.25,1.07c1.94-1.28,2.81-2.91,2.57-4.98
		c-0.19-1.63-0.99-2.58-2.53-2.84c-1.57-0.27-2.96-0.92-4.11-2.18c-0.12-0.13-0.22-0.29-0.26-0.55c0.43,0.24,0.85,0.53,1.3,0.7
		c0.81,0.3,1.64,0.69,2.47,0.73c2.93,0.15,4.77,2.02,4.97,5.35c0.05,0.87,0.31,1.45,0.95,1.87c1.51,1,3.03,2,4.54,3l0-0.02
		c0.79,1.39,1.67,2.74,2.35,4.2c0.65,1.39,1.54,2.16,2.9,2.41c1.3,0.24,2.6,0.55,3.86,0.98c1.39,0.47,2.16,1.59,2.35,3.27
		c0.1,0.85,0.39,1.66,0.66,2.71c0.75-1.09,1.25-1.92,1.84-2.64c0.64-0.78,1.51-0.95,2.58-0.94c-0.83,1.94-1.59,3.67-3.78,3.62
		c0,0.09,0.01,0.18,0.01,0.27c0.97,0.62,1.91,1.34,2.92,1.84c1.76,0.86,2.94,2.16,3.3,4.38c0.17,1.08,0.74,1.45,1.32,1.04
		c0.29-0.21,0.62-0.77,0.57-1.11c-0.5-3.64-1-7.28-1.66-10.89c-0.44-2.41-2.09-3.82-3.87-5.01L71.86,70.7z M71.64,124.86
		c0.04,0.04,0.07,0.09,0.11,0.13c2.1-0.55,4.2-1.07,6.29-1.64c2.92-0.8,5.76-1.83,8.18-3.94c2.5-2.18,3.84-5.05,3.86-8.62
		c0.01-2.67-1.76-7.24-3.54-9.28c0.13,0.44,0.23,0.76,0.32,1.09c0.79,2.76,1.55,5.54,1.38,8.48c-0.14,2.37-0.81,4.53-2.62,6.38
		c2.2-4.25,0.89-7.6-0.31-9.75c0,1.32,0.01,2.65,0,3.97c-0.03,2.97-1.07,5.43-3.31,6.96c-1.96,1.34-4.09,2.38-6.18,3.47
		c-0.91,0.47-1.91,0.73-3.08,1.16c0.45,0.07,0.68,0.11,0.98,0.15C72.98,123.93,72.31,124.39,71.64,124.86z M83.35,104.78
		c-0.59-1.5-1.16-2.87-1.67-4.27c-0.79-2.2-1.54-4.44-1.52-6.85c0.03-3.95,0.31-7.85,1.61-11.59c1.02-2.91,0.5-5.69-1.06-8.23
		c-1.3-2.11-3.05-3.63-5-4.87c-0.16-0.1-0.34-0.14-0.52-0.21c1.55,1.49,3.11,2.93,4.38,4.65c1.88,2.56,2.2,5.52,1.05,8.64
		c-0.37,1-0.7,2.01-0.98,3.04C77.7,92.35,78.22,99.06,83.35,104.78z M79.64,110c1.33-2.63,1.36-5.52,0.35-7.39
		c-2.03-3.77-3.86-7.68-5.77-11.54c-0.33-0.66-0.62-1.34-0.93-2.01c-0.01,0.51,0.09,0.97,0.26,1.4c1.56,3.97,3.08,7.97,4.72,11.9
		C79.26,104.7,80.3,106.99,79.64,110z"/>
	<path d="M140.02,47.66c-0.82,5.32-2.1,7.3-5.6,7.8C134.68,51.33,136.76,48.4,140.02,47.66z"/>
	<path d="M50.32,96.74c0.2-8.18,2.84-12.86,7.58-14.09C58.63,89.57,55.84,94.82,50.32,96.74z"/>
	<path d="M104.56,27.65c-2.27-4.17-2.4-7.59-0.28-10.1C106.8,22.53,106.78,24.39,104.56,27.65z"/>
	<path d="M60.76,32.74c-1.12-7.51-0.23-10.49,4.08-13.17C66.09,25.28,64.74,30.92,60.76,32.74z"/>
	<path d="M50.07,82.72c-4.1-2.62-5.39-4.57-4.71-8.52C48.47,75.4,50.5,79.01,50.07,82.72z"/>
	<path d="M144.01,61.84c-1.36,7.57-3.01,10.63-8.27,11.28C136.32,66.8,139.73,62.08,144.01,61.84z"/>
	<path d="M40.06,88.72c-2.37,4.96-3.7,6.09-7.28,5.7C33.41,90.92,37.05,88.04,40.06,88.72z"/>
	<path d="M98.96,59.13c-3.45-1.19-5.64-5.12-4.75-8.53c3.34,1.6,5.3,5.15,4.72,8.55C98.93,59.16,98.96,59.13,98.96,59.13z"/>
	<path d="M28.04,80.84c3.85-0.12,6.45,1.45,7.13,4.5C30.89,85.32,29.05,84.43,28.04,80.84z"/>
	<path d="M35.56,45.39c-4.44,1.48-5.95,1.03-7.98-1.75C29.63,41.73,34.28,42.75,35.56,45.39z"/>
	<path d="M30.1,38.64c-5.73,4.51-8.98,5.05-13.13,1.46C22.03,35.97,26.69,35.31,30.1,38.64z"/>
	<path d="M19.08,54.95c3.6,1.15,5.58,3.55,5.48,6.56C20.49,60.15,19.08,58.54,19.08,54.95z"/>
	<path d="M82.82,60.95c-3.68-2.33-4.73-4.05-4.17-7.57C81.93,55.18,83.53,58.05,82.82,60.95z"/>
	<path d="M107.12,53.03c2,6.79,1.4,10.53-2.08,13.18C102.94,60.36,103.77,55.57,107.12,53.03z"/>
	<path d="M42.36,24.32c1.2,4.04,0.68,6.99-1.48,8.67C39.32,29.96,39.92,26.29,42.36,24.32z"/>
	<path d="M85.57,17.12c5.33,0.55,8.59,3.33,9.21,7.79C89.76,24.98,85.93,21.77,85.57,17.12z"/>
	<path d="M145.53,84.76c-3.24-1.57-4.5-3.83-4.11-7.33C144.01,78.03,146.15,81.85,145.53,84.76z"/>
	<path d="M29.97,64.53c-0.68,1.24-1.28,2.53-2.04,3.7c-1.05,1.62-2.63,1.7-4.25,1.64c0.73-3.22,3.12-5.2,6.32-5.31
		C30,64.57,29.97,64.53,29.97,64.53z"/>
	<path d="M122.29,69.86c2.22,2.82,2.4,6.25,0.48,8.91c-1.63-1.85-2.03-5.67-0.85-7.92C122.07,70.54,122.17,70.19,122.29,69.86
		C122.29,69.86,122.29,69.86,122.29,69.86z"/>
	<path d="M64.17,44.52c3.56,5.82,3.89,8.62,0.81,12.49C61.49,51.97,61.43,47.64,64.17,44.52z"/>
	<path d="M37.47,31.02c-3.86-1.33-5.17-2.87-5.15-6.17C35.84,25.94,37.62,28.27,37.47,31.02z"/>
	<path d="M23.73,45.59c3.6,1.71,4.86,3.43,4.48,6.68C24.85,50.77,23.28,48.25,23.73,45.59z"/>
	<path d="M45.95,58.8c-2.94,3.22-4.56,3.79-7.24,2.28C40.58,58.37,43.45,57.45,45.95,58.8z"/>
	<path d="M56.81,31.7c-0.16,0.16-0.31,0.41-0.49,0.45c-0.85,0.17-1.7,0.29-2.56,0.42c-1.93,0.29-3.3-0.75-4.44-2.39
		c1.97-1,5.31-0.97,6.82,0.92c0.2,0.25,0.46,0.43,0.7,0.64C56.84,31.74,56.81,31.7,56.81,31.7z"/>
	<path d="M67.12,44.24c-0.01-1.21-0.04-2.43-0.04-3.64c-0.01-2.12,1.15-3.33,2.62-4.33c0.9,2.56,0.07,6.05-1.79,7.56
		c-0.23,0.19-0.54,0.26-0.82,0.39C67.09,44.21,67.12,44.24,67.12,44.24z"/>
	<path d="M131.86,32.48c1.04,6.71-0.45,12.49-4.58,14.83C125.37,41.42,127.47,34.62,131.86,32.48z"/>
	<path d="M111.55,25.78c3.21-2.44,5.32-2.53,7.34-0.88C116.79,27.37,113.86,27.75,111.55,25.78z"/>
	<path d="M87.25,25.25c1.99,3.61,2.04,6.03,0.22,8.26C85.62,30.76,85.52,27.53,87.25,25.25z"/>
	<path d="M61.25,18.85c-0.25,3.43-1.95,5.76-4.54,6.3C56.57,21.96,58.48,19.28,61.25,18.85z"/>
	<path d="M72.9,30.43c-0.61-4.36-0.19-6.15,2.38-7.66C76.17,25.82,75.2,29.01,72.9,30.43z"/>
	<path d="M49.66,33.88c2.67,2.71,3.28,5.12,2.01,7.77C49.06,38.9,48.57,36.31,49.66,33.88z"/>
	<path d="M44.86,49.07c-2.83-0.9-4.14-3.35-3.49-6.42C43.74,43.19,45.32,46.06,44.86,49.07z"/>
	<path d="M66.66,23.19c3,1.74,4.29,4.21,3.7,6.72C66.98,27.88,66.13,26.21,66.66,23.19z"/>
	<path d="M95.16,37.71c1.26,4.15,0.95,5.97-1.16,7.83C92.63,42.96,93.11,39.52,95.16,37.71z"/>
	<path d="M54.7,69.33c-2.58,2.99-4.27,3.53-6.69,2.12C50.06,68.78,52.74,67.94,54.7,69.33z"/>
	<path d="M18.13,84.15c2.3-7.53,6.58-11.48,11.47-10.71C26.9,81.86,23.92,84.65,18.13,84.15z"/>
	<path d="M51.13,21.54c2.84,0.91,4.83,3.1,4.49,5.65C52.18,25.84,51.11,24.58,51.13,21.54z"/>
	<path d="M77.7,46.47c3.01,0.39,4.9,2.14,5.16,4.77C79.45,50.75,77.87,49.35,77.7,46.47z"/>
	<path d="M64.49,73.26c-2.02-3.27-2.18-5.04-0.72-7.38C65.74,68.52,65.96,71.41,64.49,73.26z"/>
	<path d="M16.96,71.56c2.43-1.76,4.53-1.66,6.46,0.3C22.19,73.65,18.51,73.48,16.96,71.56z"/>
	<path d="M16.25,49.15c3.25-0.53,5.04,0.35,5.97,2.9C19.15,52.68,16.93,51.38,16.25,49.15z"/>
	<path d="M34.88,70.1c0.08-0.02,0.2-0.1,0.25-0.06c1.82,1.54,2.26,4.93,0.93,7.13c-1.72-1.84-2.13-4.34-1.15-7.09
		C34.9,70.07,34.88,70.1,34.88,70.1z"/>
	<path d="M92.17,72.06c-0.14-0.03-0.34,0-0.41-0.1c-1.25-1.71-1.28-5.1-0.07-6.87c0.07-0.11,0.1-0.26,0.18-0.5
		c1.36,2.64,1.92,5.04,0.27,7.49C92.15,72.08,92.17,72.06,92.17,72.06z"/>
	<path d="M98.27,29.58c-0.84-3.18-0.14-5.48,2.04-6.85C101.05,25.13,100.45,28.49,98.27,29.58z"/>
	<path d="M110.64,44.47c0.02-0.44,0.08-0.87,0.06-1.31c-0.1-2.33,0.17-4.46,2.21-5.73c1.1,2.92,0.12,5.92-2.29,7.02
		C110.63,44.45,110.64,44.47,110.64,44.47z"/>
	<path d="M75.59,44.39c-3.06-1.76-3.89-3.42-3.35-6.03C75.03,39.92,76.15,42.23,75.59,44.39z"/>
	<path d="M57.35,42.05c2.38-2.03,4.72-2.31,6.23-0.75C61.38,43.43,59.5,43.68,57.35,42.05z"/>
	<path d="M80.6,25.81c0.04-3.74,0.72-5.23,3.06-6.06C84.17,22.39,82.65,25.41,80.6,25.81z"/>
	<path d="M139.16,58.34c-1.6,2.91-3.6,3.96-5.6,2.99C135.11,58.61,137.24,57.46,139.16,58.34z"/>
	<path d="M116.75,37.52c-2.69-1.98-3.67-3.5-2.93-6.19C116.22,32.76,117.33,35.06,116.75,37.52z"/>
	<path d="M101.34,75.57c-1.71,2.36-3.42,2.93-5.64,1.86C96.73,75.34,99.49,74.43,101.34,75.57z"/>
	<path d="M55.68,16.59c1.53,2.72,1.59,4.82,0.25,6.71C54.24,21.08,54.13,18.62,55.68,16.59z"/>
	<path d="M42.07,81.57c-1.8,2.47-3.57,3.07-5.54,1.93C38.08,81.3,40.12,80.56,42.07,81.57z"/>
	<path d="M41.94,66.95c-1.3,3.3-2.52,4-4.62,3.73C37.79,68.26,40,66.47,41.94,66.95z"/>
	<path d="M26.65,91.06c1.51-2.25,3.62-3.03,5.44-2C30.5,91.49,28.49,92.23,26.65,91.06z"/>
	<path d="M98.55,18.77c0.19,2.51-1.22,4.83-3.22,5.28C95.25,21.13,96.35,19.33,98.55,18.77z"/>
	<path d="M115.45,47.45c2.75-0.32,4.3,0.44,5.12,2.48C118.25,50.68,116.3,49.77,115.45,47.45z"/>
	<path d="M48.19,52.65c0.09,0.07,0.19,0.13,0.28,0.2c-1.35,2.22-3.35,2.9-5.42,1.77C44.5,52.96,46.08,51.96,48.19,52.65z"/>
	<path d="M59.39,50.72c-0.72-2.79-0.1-4.93,1.61-5.71C61.85,47.73,61.36,49.53,59.39,50.72z"/>
	<path d="M94.19,34.02c2.42-0.06,4.19,1.3,4.56,3.45C95.72,37.23,94.69,36.33,94.19,34.02z"/>
	<path d="M117.52,37.84c0.44-1.06,0.8-2.19,1.36-3.17c0.54-0.95,1.45-1.32,2.47-1.37c-0.39,2.77-1.37,3.89-3.85,4.5
		C117.49,37.81,117.52,37.84,117.52,37.84z"/>
	<path d="M73.56,33.72c-2.45,1.89-3.97,1.71-5.32,0.31C69.79,32.44,72.05,32.31,73.56,33.72z"/>
	<path d="M142.84,74.39c-0.15-0.07-0.37-0.1-0.42-0.23c-0.85-1.99-0.32-4.24,1.35-5.59c0.59,2.18,0.56,4.16-0.96,5.86
		C142.81,74.43,142.84,74.39,142.84,74.39z"/>
	<path d="M101.31,52.73c2.21-1.52,3.79-1.59,5.34-0.27C104.99,54.22,102.89,54.35,101.31,52.73z"/>
	<path d="M109.07,87.37c1.37,2.38,1.43,4.27,0.25,5.99C107.8,91.41,107.7,89.31,109.07,87.37z"/>
	<path d="M124.63,38.45c0.21,2.53-0.94,4.9-2.6,5.12C122.02,40.52,122.64,39.03,124.63,38.45z"/>
	<path d="M129.25,82.21c2.44,0.7,3.62,2.03,3.72,4.16C130.55,85.99,129.16,84.44,129.25,82.21z"/>
	<path d="M76.26,17.78c2.07,1.24,2.98,3.12,2.49,5.17C76.53,21.72,75.67,19.94,76.26,17.78z"/>
	<path d="M86.74,58.26c-2.06-1.43-2.71-3.13-2.01-5.22C86.47,54.2,87.56,56.54,86.74,58.26z"/>
	<path d="M103.4,86c1.83,1.02,3.14,3.35,2.39,5.04C103.55,89.57,102.86,88.12,103.4,86z"/>
	<path d="M107.25,75.48c-2.16-1.3-2.82-2.64-2.46-4.98C106.8,71.44,107.94,73.94,107.25,75.48z"/>
	<path d="M34.97,52.43c-2.08-1.06-3.04-2.52-2.93-4.43c0.01-0.16,0.06-0.33,0.09-0.5c1.96,0.9,2.79,2.39,2.81,4.96
		C34.94,52.47,34.97,52.43,34.97,52.43z"/>
	<path d="M81.65,36.93c2.07,1.35,2.83,2.9,2.49,5.02C82.21,41.22,81.23,39.3,81.65,36.93z"/>
	<path d="M71.84,70.68c-0.64,0.53-1.26,1.1-1.93,1.58c-1.05,0.75-2.09,0.47-3.18-0.2c1.55-1.55,3.12-2.47,5.13-1.36
		C71.86,70.7,71.84,70.68,71.84,70.68z"/>
	<path d="M138.52,45.48c-2.39,1.75-3.59,1.56-4.97,0.2C135.41,44.18,137.15,44.11,138.52,45.48z"/>
	<path d="M19.48,66.85c0.53-2.2,2-3.51,3.89-3.47C23.03,65.65,21.42,67.1,19.48,66.85z"/>
	<path d="M30.07,35.52c-2.05-1.74-2.53-3.08-1.92-5.23C29.8,31.09,30.7,33.5,30.07,35.52z"/>
	<path d="M29.14,60.44c-2.41-0.48-3.51-1.66-3.59-3.86C27.64,56.86,29.09,58.42,29.14,60.44z"/>
	<path d="M131.97,65.57c2.15-1.43,3.58-1.48,4.99-0.2C135.33,66.98,133.55,67.07,131.97,65.57z"/>
	<path d="M62.71,61.35c-0.64,2.79-1.52,3.75-3.58,3.94C59.24,63.2,60.78,61.47,62.71,61.35z"/>
	<path d="M65.2,81.38c-1.57,2.21-3.02,2.72-4.8,1.74C61.67,81.23,63.38,80.59,65.2,81.38z"/>
	<path d="M87.91,46.91c0.43-2.4,1.83-3.88,3.6-3.83C90.9,45.69,89.77,47.17,87.91,46.91z"/>
	<path d="M53.18,74.08c2.01-1.32,3.64-1.29,5,0.09C56.41,75.7,54.51,75.67,53.18,74.08z"/>
	<path d="M38.52,58.29c-1.65-2.1-1.86-3.68-0.78-5.58C39.17,54.18,39.49,56.36,38.52,58.29z"/>
	<path d="M131.66,52.76c-2.32,1.03-3.72,0.73-4.88-1.02C128.51,50.67,130.43,51.05,131.66,52.76z"/>
	<path d="M53.21,78.24c-2.37-1.41-3-2.59-2.63-4.8C52.55,74.36,53.51,76.07,53.21,78.24z"/>
	<path d="M44.8,32.48c1.48,2.17,1.68,3.9,0.7,5.56C43.88,36.28,43.62,34.36,44.8,32.48z"/>
	<path d="M111.31,54.04c1.9-1.46,3.62-1.51,4.93-0.15C114.29,55.5,112.66,55.55,111.31,54.04z"/>
	<path d="M144.75,74.54c2.35-0.57,4.09,0.01,4.73,1.67C147.59,77.11,145.83,76.52,144.75,74.54z"/>
	<path d="M109.01,37.38c-1.05,2.29-2.38,3.08-4.22,2.52C105.55,37.98,107.68,36.55,109.01,37.38z"/>
	<path d="M56.49,66.58c-0.12-0.78-0.28-1.56-0.36-2.34c-0.13-1.3,0.26-2.37,1.18-3.19c1.02,2.05,0.79,3.61-0.82,5.52
		C56.49,66.56,56.49,66.58,56.49,66.58z"/>
	<path d="M91.24,33.43c0.07-2.91,1.03-4.07,2.67-4.34C93.88,31.46,92.91,33.04,91.24,33.43z"/>
	<path d="M45.55,67.92c0.61,2.82,0.34,3.9-1.2,5.11C43.56,71.15,44.02,69.08,45.55,67.92z"/>
	<path d="M50.19,84.81c0.68,2.58,0.34,3.97-1.24,5.01C48.26,87.55,48.74,85.64,50.19,84.81z"/>
	<path d="M97.35,86.69c-0.12-0.04-0.33-0.05-0.36-0.14c-0.57-1.72,0.16-3.97,1.56-4.86c0.68,1.88,0.29,3.47-1.23,5.03
		C97.32,86.72,97.35,86.69,97.35,86.69z"/>
	<path d="M108.51,26.24c-0.02-2.47,0.82-3.86,2.64-4.33C111.25,24.2,109.92,26.24,108.51,26.24z"/>
	<path d="M116.79,67c0.51-2.66,1.49-3.68,3.07-3.68C119.78,65.39,118.38,67.07,116.79,67z"/>
	<path d="M122.53,91.87c-1.12-2.08-1.21-3.77,0.03-4.91C123.62,88.81,123.62,90.32,122.53,91.87z"/>
	<path d="M87.21,73.42c1.46,0.74,2.77,2.81,2.06,4.33C87.92,76.73,86.69,75.66,87.21,73.42z"/>
	<path d="M118.85,56.75c-1.06-1.98-1-3.34,0.22-4.76C120.05,53.55,119.97,55.44,118.85,56.75z"/>
	<path d="M122.08,46.95c1.91,1.04,2.53,2.04,2.43,3.89C122.67,50.2,121.81,48.86,122.08,46.95z"/>
	<path d="M91.03,38.57c-2.09-0.02-2.99-0.72-3.46-2.6C89.36,35.91,90.65,36.86,91.03,38.57z"/>
	<path d="M53.56,46.87c1.83,0,3.01,0.86,3.45,2.52C55.33,49.74,53.97,48.75,53.56,46.87z"/>
	<path d="M130.26,63.64c-1.98,0.06-3-0.71-3.45-2.59C128.53,60.9,129.93,61.96,130.26,63.64z"/>
	<path d="M41.41,77.9c-1.82-0.59-3.02-1.27-2.98-3.25C40.13,74.83,41.3,76.07,41.41,77.9z"/>
	<path d="M83.45,30.54c-0.91,2.06-1.8,2.64-3.46,2.34C80.53,31.21,81.81,30.32,83.45,30.54z"/>
	<path d="M140.59,88.12c-2.05-0.85-2.67-1.7-2.52-3.41C139.84,85.39,140.59,86.38,140.59,88.12z"/>
	<path d="M133.55,92.14c-2.05-0.9-2.57-1.59-2.53-3.35C132.65,89.17,133.61,90.41,133.55,92.14z"/>
	<path d="M74.65,53.76c-0.31-2.04,0.15-3.3,1.46-4C76.51,51.88,76.08,53.07,74.65,53.76z"/>
	<path d="M67.04,33.23c-0.36,2.28-0.88,2.98-2.37,3.28C64.62,34.87,65.52,33.59,67.04,33.23z"/>
	<path d="M55.33,52.21c1.46,1.24,1.88,2.36,1.44,3.76C55.25,54.92,54.75,53.58,55.33,52.21z"/>
	<path d="M35.04,78.04c-1.89,0.22-2.71-0.23-3.27-1.74C33.19,75.92,34.41,76.54,35.04,78.04z"/>
	<path d="M32.31,69.61c-1.7,0.3-2.59-0.17-3.23-1.7C30.53,67.47,31.85,68.17,32.31,69.61z"/>
	<path d="M66.42,63.66c-1.68,1.19-2.49,1.22-3.67,0.21C63.88,62.72,65.17,62.64,66.42,63.66z"/>
	<path d="M48.41,63.24c-2.03,0.23-2.84-0.21-3.33-1.73C46.75,61.26,47.72,61.75,48.41,63.24z"/>
	<path d="M132.73,69.32c0.27,1.99-0.1,2.95-1.41,3.66C130.92,71.27,131.46,69.87,132.73,69.32z"/>
	<path d="M123.66,85.55c0.09-1.42,1.66-2.52,3.11-2.11c-0.69,1.43-1.65,2.25-3.14,2.08C123.63,85.52,123.66,85.55,123.66,85.55z"/>
	<path d="M132,80.17c0.91-1.63,1.7-2.12,3.13-1.92C134.64,79.94,133.33,80.74,132,80.17z"/>
	<path d="M99.12,64.74c-1.65,0.45-2.66-0.04-3.19-1.55C97.62,62.93,98.57,63.39,99.12,64.74z"/>
	<path d="M102.02,91.31c-1.64,0.46-2.68-0.03-3.18-1.51C100.43,89.47,101.42,89.95,102.02,91.31z"/>
	<path d="M125.9,65.46c-0.94,1.83-1.64,2.24-3.12,1.93C123.4,65.87,124.38,65.25,125.9,65.46z"/>
	<path d="M95.44,46.91c1.72-0.29,2.72,0.21,3.24,1.57C97.01,48.86,96.15,48.46,95.44,46.91z"/>
	<path d="M147.12,68.9c0.31,2.04-0.13,3.11-1.45,3.69C145.45,70.68,145.84,69.63,147.12,68.9z"/>
	<path d="M103.41,74.51c-1.33-0.37-2.53-0.77-2.69-2.57C102.19,71.94,103.24,72.91,103.41,74.51z"/>
	<path d="M117.51,77.44c-1.8,0.32-2.63-0.07-3.16-1.52C115.89,75.52,117.02,76.07,117.51,77.44z"/>
	<path d="M136.69,78.84c1.87-0.17,2.69,0.25,3.19,1.57C138.26,80.78,137.07,80.3,136.69,78.84z"/>
	<path d="M113.25,73.67c-1.61-1.08-2.01-1.91-1.67-3.38C112.91,70.95,113.51,72.12,113.25,73.67z"/>
	<path d="M125.63,80.84c-0.17-2.07,0.24-3.08,1.44-3.65C127.41,79.1,127,80.17,125.63,80.84z"/>
	<path d="M116.4,62.43c-1.42,1.13-2.26,1.18-3.34,0.25C114.09,61.66,115.17,61.56,116.4,62.43z"/>
	<path d="M126.44,58.11c0.33-1.67,1.07-2.48,2.29-2.52C128.54,57.28,127.83,58.06,126.44,58.11z"/>
	<path d="M95.54,82.26c-1.74,0.42-2.39,0.18-3.02-1.1C93.68,80.61,94.75,80.98,95.54,82.26z"/>
	<path d="M51.83,56.23c-1.08,0.86-2.16,0.69-3.03-0.47c1.14-0.64,1.75-0.54,3.05,0.5C51.86,56.26,51.83,56.23,51.83,56.23z"/>
	<path d="M81.5,42.85c-1.42,1.01-2.01,1.04-3.03,0.19C79.48,42.11,80.4,42.03,81.5,42.85z"/>
	<path d="M129.17,68.13c-1.45-0.85-1.81-1.54-1.63-3.14c1.18,0.67,1.72,1.7,1.6,3.17C129.14,68.16,129.17,68.13,129.17,68.13z"/>
	<path d="M119.22,61.76c-1.32-0.74-1.65-1.37-1.51-2.88C118.89,59.34,119.44,60.41,119.22,61.76z"/>
	<path d="M62.46,36.74c-0.79,1.62-1.3,1.96-2.58,1.76C60.37,37.13,61.12,36.6,62.46,36.74z"/>
	<path d="M39.67,34.72c-1.52,0.72-2.12,0.62-3-0.44C37.81,33.56,38.7,33.67,39.67,34.72z"/>
	<path d="M57.5,36.21c-1.39-0.93-1.67-1.52-1.43-2.93C57.34,33.96,57.81,34.93,57.5,36.21z"/>
	<path d="M55.95,37.85c-0.61,1.54-1.3,2-2.56,1.71C54.05,38.13,54.72,37.68,55.95,37.85z"/>
	<path d="M33.12,54.53c-0.89,1.53-1.5,1.86-2.74,1.48c0.64-1.34,1.45-1.76,2.76-1.45C33.15,54.56,33.12,54.53,33.12,54.53z"/>
	<path d="M76.31,31.85c1.28,0.76,1.66,1.5,1.54,2.91C76.63,34.28,76.16,33.41,76.31,31.85z"/>
	<path d="M113.01,44.15c0.85,1.27,0.91,2.24,0.21,3.35C112.29,46.18,112.24,45.32,113.01,44.15z"/>
	<path d="M71.11,57.61c-1.46,0.1-2.19-0.43-2.44-1.78C70,55.78,70.74,56.32,71.11,57.61z"/>
	<path d="M60.41,72.54c-0.55-1.74-0.46-2.53,0.38-3.36C61.42,70.53,61.42,71.93,60.41,72.54z"/>
	<path d="M45.75,44.16c0.99-0.57,1.96-1.03,3.01-0.12C47.56,45.15,46.59,45.19,45.75,44.16z"/>
	<path d="M51.43,65.73c-0.7,1.39-1.3,1.73-2.65,1.5C49.24,65.95,50.21,65.41,51.43,65.73z"/>
	<path d="M85.78,69.48c-1.07,1.55-1.49,1.76-2.73,1.42C83.64,69.59,84.5,69.12,85.78,69.48z"/>
	<path d="M52.67,43.71c1.2-0.94,2.02-1,2.99-0.24C54.68,44.47,53.79,44.56,52.67,43.71z"/>
	<path d="M118.52,79.35c-0.15-1.59,0.24-2.48,1.28-2.9C119.94,78.21,119.64,78.86,118.52,79.35z"/>
	<path d="M116.02,74.28c0.44-1.23,0.88-2.25,2.16-2.35C117.92,73.56,117.44,74.11,116.02,74.28z"/>
	<path d="M108.26,83.1c0.37-1.54,0.93-2.14,2.05-2.18C109.98,82.58,109.43,83.16,108.26,83.1z"/>
	<path d="M134.86,84.82c0.59-0.83,1.09-1.49,2.13-1.22C136.5,84.49,135.99,85.13,134.86,84.82z"/>
</g>
<g>
	<path class="st0" d="M10.88,28.93c0.1,0.04,0.13,0.12,0.13,0.22c0,0.16,0,0.32,0,0.48c0,0.16-0.06,0.21-0.22,0.22
		c-0.39,0-0.77,0-1.16,0c-0.02,0-0.05,0-0.07,0c-0.01,0.03,0.01,0.04,0.02,0.06c0.14,0.2,0.24,0.43,0.3,0.67
		c0.01,0.06,0.04,0.08,0.1,0.08c0.27,0,0.55,0,0.82,0c0.16,0,0.22,0.06,0.22,0.22c0,0.16,0,0.32,0,0.48c0,0.16-0.06,0.22-0.22,0.22
		c-0.27,0-0.54,0-0.81,0c-0.05,0-0.07,0.01-0.08,0.07c-0.1,0.55-0.38,1-0.83,1.33c-0.33,0.24-0.7,0.38-1.1,0.46
		c-0.09,0.02-0.19,0.03-0.29,0.05c-0.01,0.03,0.02,0.04,0.03,0.05c0.86,0.93,1.67,1.91,2.47,2.89c0.05,0.06,0.08,0.13,0.04,0.21
		c-0.04,0.08-0.11,0.11-0.19,0.11c-0.33,0-0.67,0-1,0c-0.09,0-0.15-0.03-0.21-0.1C8.14,35.82,7.45,35,6.74,34.21
		c-0.2-0.22-0.4-0.44-0.61-0.66c-0.06-0.06-0.09-0.13-0.09-0.22c0-0.2,0-0.41,0-0.61c0-0.15,0.07-0.22,0.22-0.22
		c0.31,0,0.63,0.01,0.94-0.02c0.35-0.04,0.69-0.12,0.99-0.33c0.18-0.14,0.31-0.31,0.38-0.53c0-0.01,0.01-0.03,0.01-0.05
		c-0.03,0-0.06,0-0.09,0c-0.74,0-1.48,0-2.22,0c-0.18,0-0.23-0.05-0.23-0.23c0-0.15,0-0.3,0-0.45c0-0.18,0.05-0.24,0.23-0.24
		c0.71,0,1.42,0,2.13,0c0.03,0,0.06,0,0.09,0c-0.04-0.1-0.1-0.17-0.17-0.24c-0.2-0.2-0.45-0.28-0.72-0.34
		c-0.21-0.04-0.42-0.05-0.64-0.05c-0.24,0-0.47,0-0.71,0c-0.17,0-0.23-0.06-0.23-0.23c0-0.22,0-0.43,0-0.65
		c0-0.11,0.04-0.18,0.14-0.22C7.75,28.93,9.31,28.93,10.88,28.93z"/>
</g>
<path class="st1" d="M21.25,38.06c0.04-0.06,0.09-0.08,0.16-0.07c0.1,0.01,0.21,0.02,0.31,0.04c0.1,0.01,0.13,0.06,0.12,0.16
	c-0.03,0.25-0.06,0.5-0.09,0.75c0,0.02,0,0.03-0.01,0.05c0.02,0.01,0.03,0,0.04-0.01c0.14-0.08,0.3-0.13,0.46-0.14
	c0.04,0,0.05-0.02,0.06-0.06c0.02-0.18,0.04-0.36,0.06-0.53c0.01-0.11,0.05-0.14,0.16-0.13c0.1,0.01,0.21,0.02,0.31,0.04
	c0.1,0.01,0.14,0.06,0.12,0.16c-0.02,0.18-0.04,0.35-0.06,0.53c0,0.03,0,0.05,0.04,0.06c0.35,0.11,0.62,0.32,0.8,0.64
	c0.13,0.23,0.19,0.48,0.21,0.75c0,0.06,0.01,0.13,0.01,0.19c0.02,0.01,0.03-0.01,0.04-0.02c0.67-0.49,1.37-0.93,2.07-1.38
	c0.04-0.03,0.09-0.04,0.14-0.01c0.05,0.03,0.06,0.08,0.05,0.13c-0.03,0.22-0.05,0.43-0.08,0.65c-0.01,0.06-0.03,0.1-0.08,0.13
	c-0.59,0.38-1.17,0.77-1.74,1.17c-0.16,0.11-0.32,0.23-0.48,0.34c-0.05,0.03-0.09,0.05-0.15,0.04c-0.13-0.02-0.26-0.03-0.4-0.05
	c-0.1-0.01-0.13-0.06-0.12-0.16c0.02-0.2,0.06-0.41,0.06-0.61c0-0.23-0.02-0.46-0.14-0.67c-0.07-0.13-0.18-0.22-0.32-0.29
	c-0.01,0-0.02-0.01-0.03-0.01c0,0.02,0,0.04-0.01,0.06c-0.06,0.48-0.11,0.96-0.17,1.44c-0.01,0.11-0.05,0.15-0.17,0.13
	c-0.1-0.01-0.19-0.02-0.29-0.03c-0.12-0.01-0.15-0.05-0.14-0.17c0.05-0.46,0.11-0.92,0.16-1.38c0-0.02,0-0.04,0.01-0.06
	c-0.07,0.02-0.12,0.05-0.17,0.09c-0.14,0.11-0.22,0.27-0.28,0.44c-0.04,0.13-0.07,0.27-0.08,0.41c-0.02,0.15-0.04,0.31-0.05,0.46
	c-0.01,0.11-0.06,0.14-0.17,0.13c-0.14-0.02-0.28-0.03-0.42-0.05c-0.07-0.01-0.11-0.04-0.13-0.11
	C21.01,40.09,21.13,39.07,21.25,38.06z"/>
<path class="st1" d="M26.3,78.13c0.03,0.06,0.02,0.11-0.02,0.17c-0.06,0.08-0.13,0.17-0.19,0.25c-0.06,0.08-0.12,0.09-0.2,0.03
	c-0.2-0.15-0.4-0.3-0.6-0.46c-0.01-0.01-0.03-0.02-0.04-0.03c-0.02,0.01-0.01,0.02-0.01,0.04c-0.01,0.16-0.04,0.32-0.11,0.47
	c-0.02,0.04-0.01,0.06,0.02,0.08c0.14,0.11,0.29,0.22,0.43,0.32c0.08,0.06,0.09,0.12,0.03,0.2c-0.06,0.08-0.13,0.17-0.19,0.25
	c-0.06,0.08-0.12,0.09-0.2,0.03c-0.14-0.11-0.28-0.21-0.42-0.32c-0.03-0.02-0.04-0.02-0.07,0c-0.27,0.25-0.59,0.37-0.96,0.37
	c-0.27,0-0.52-0.08-0.75-0.19c-0.06-0.03-0.11-0.06-0.17-0.09c-0.01,0.01,0,0.03,0,0.04c0.08,0.83,0.11,1.65,0.15,2.48
	c0,0.05-0.01,0.1-0.06,0.13c-0.05,0.03-0.1,0.01-0.14-0.02c-0.17-0.13-0.35-0.27-0.52-0.4c-0.05-0.03-0.07-0.08-0.07-0.13
	c-0.03-0.7-0.07-1.39-0.13-2.09c-0.02-0.2-0.04-0.39-0.06-0.58c-0.01-0.06,0.01-0.1,0.04-0.15c0.08-0.1,0.16-0.21,0.24-0.32
	c0.06-0.08,0.12-0.09,0.2-0.03c0.17,0.12,0.32,0.26,0.5,0.36c0.2,0.12,0.41,0.21,0.65,0.22c0.15,0,0.28-0.04,0.41-0.13
	c0.01-0.01,0.01-0.01,0.02-0.02c-0.02-0.01-0.03-0.02-0.05-0.03c-0.38-0.29-0.77-0.58-1.15-0.87c-0.09-0.07-0.1-0.12-0.03-0.21
	c0.06-0.08,0.12-0.16,0.18-0.23c0.07-0.1,0.12-0.1,0.22-0.03c0.37,0.28,0.74,0.56,1.11,0.84c0.01,0.01,0.03,0.02,0.05,0.04
	c0.02-0.06,0.02-0.13,0.01-0.19c-0.03-0.18-0.12-0.33-0.24-0.46c-0.09-0.1-0.2-0.19-0.31-0.28c-0.12-0.09-0.25-0.19-0.37-0.28
	c-0.09-0.07-0.09-0.12-0.03-0.21c0.09-0.11,0.17-0.22,0.25-0.34c0.04-0.06,0.09-0.08,0.16-0.06C24.67,76.9,25.48,77.52,26.3,78.13z"
	/>
<path class="st1" d="M66.2,48.98c0.06,0.03,0.09,0.08,0.08,0.15c0,0.1,0,0.21,0,0.31c0,0.1-0.04,0.14-0.14,0.14
	c-0.25,0-0.5-0.01-0.76-0.01c-0.02,0-0.03,0-0.05,0c-0.01,0.02,0,0.03,0.01,0.04c0.09,0.13,0.16,0.28,0.19,0.44
	c0.01,0.04,0.03,0.05,0.07,0.05c0.18,0,0.36,0,0.54,0.01c0.11,0,0.14,0.04,0.14,0.15c0,0.1,0,0.21,0,0.31c0,0.1-0.04,0.14-0.15,0.14
	c-0.18,0-0.36,0-0.53-0.01c-0.03,0-0.05,0-0.06,0.04c-0.07,0.36-0.25,0.65-0.55,0.86c-0.22,0.15-0.46,0.24-0.72,0.29
	c-0.06,0.01-0.12,0.02-0.19,0.03c0,0.02,0.01,0.03,0.02,0.03c0.56,0.62,1.08,1.26,1.59,1.91c0.03,0.04,0.05,0.08,0.03,0.14
	c-0.03,0.05-0.07,0.07-0.13,0.07c-0.22,0-0.44-0.01-0.66-0.01c-0.06,0-0.1-0.02-0.14-0.06c-0.44-0.54-0.89-1.08-1.35-1.6
	c-0.13-0.15-0.26-0.29-0.39-0.44C63.02,51.92,63,51.87,63,51.82c0-0.13,0-0.27,0.01-0.4c0-0.1,0.05-0.14,0.14-0.14
	c0.21,0,0.41,0.01,0.62,0c0.23-0.02,0.46-0.07,0.65-0.21c0.12-0.09,0.2-0.2,0.25-0.34c0-0.01,0-0.02,0.01-0.03
	c-0.02,0-0.04,0-0.06,0c-0.48-0.01-0.97-0.01-1.45-0.02c-0.12,0-0.15-0.04-0.15-0.15c0-0.1,0-0.2,0-0.29c0-0.12,0.04-0.15,0.15-0.15
	c0.46,0.01,0.93,0.01,1.39,0.02c0.02,0,0.04,0,0.06,0c-0.02-0.06-0.06-0.11-0.11-0.16c-0.13-0.13-0.29-0.19-0.47-0.23
	c-0.14-0.03-0.28-0.04-0.42-0.04c-0.15,0-0.31,0-0.46-0.01c-0.11,0-0.15-0.04-0.15-0.15c0-0.14,0-0.28,0-0.42
	c0-0.07,0.03-0.12,0.09-0.14C64.15,48.96,65.17,48.97,66.2,48.98z"/>
<path class="st1" d="M107.62,57.5c0.06,0.03,0.09,0.08,0.08,0.15c0,0.1,0,0.21,0,0.31c0,0.1-0.04,0.14-0.14,0.14
	c-0.25,0-0.5-0.01-0.76-0.01c-0.02,0-0.03,0-0.05,0c-0.01,0.02,0,0.03,0.01,0.04c0.09,0.13,0.16,0.28,0.19,0.44
	c0.01,0.04,0.03,0.05,0.07,0.05c0.18,0,0.36,0,0.54,0.01c0.11,0,0.14,0.04,0.14,0.15c0,0.1,0,0.21,0,0.31c0,0.1-0.04,0.14-0.15,0.14
	c-0.18,0-0.36,0-0.53-0.01c-0.03,0-0.05,0-0.06,0.04c-0.07,0.36-0.25,0.65-0.55,0.86c-0.22,0.15-0.46,0.24-0.72,0.29
	c-0.06,0.01-0.12,0.02-0.19,0.03c0,0.02,0.01,0.03,0.02,0.03c0.56,0.62,1.08,1.26,1.59,1.91c0.03,0.04,0.05,0.08,0.03,0.14
	c-0.03,0.05-0.07,0.07-0.13,0.07c-0.22,0-0.44-0.01-0.66-0.01c-0.06,0-0.1-0.02-0.14-0.06c-0.44-0.54-0.89-1.08-1.35-1.6
	c-0.13-0.15-0.26-0.29-0.39-0.44c-0.04-0.04-0.06-0.09-0.05-0.14c0-0.13,0-0.27,0.01-0.4c0-0.1,0.05-0.14,0.14-0.14
	c0.21,0,0.41,0.01,0.62,0c0.23-0.02,0.46-0.07,0.65-0.21c0.12-0.09,0.2-0.2,0.25-0.34c0-0.01,0-0.02,0.01-0.03
	c-0.02,0-0.04,0-0.06,0c-0.48-0.01-0.97-0.01-1.45-0.02c-0.12,0-0.15-0.04-0.15-0.15c0-0.1,0-0.2,0-0.29c0-0.12,0.04-0.15,0.15-0.15
	c0.46,0.01,0.93,0.01,1.39,0.02c0.02,0,0.04,0,0.06,0c-0.02-0.06-0.06-0.11-0.11-0.16c-0.13-0.13-0.29-0.19-0.47-0.23
	c-0.14-0.03-0.28-0.04-0.42-0.04c-0.15,0-0.31,0-0.46-0.01c-0.11,0-0.15-0.04-0.15-0.15c0-0.14,0-0.28,0-0.42
	c0-0.07,0.03-0.12,0.09-0.14C105.57,57.48,106.6,57.49,107.62,57.5z"/>
<path class="st1" d="M96.89,53.43c0.05-0.01,0.08,0.01,0.1,0.05c0.04,0.06,0.08,0.12,0.11,0.18c0.04,0.06,0.03,0.1-0.03,0.13
	c-0.15,0.09-0.29,0.19-0.44,0.28c-0.01,0.01-0.02,0.01-0.03,0.02c0,0.01,0.01,0.01,0.02,0.02c0.1,0.04,0.19,0.1,0.27,0.18
	c0.02,0.02,0.03,0.02,0.06,0c0.1-0.07,0.21-0.13,0.31-0.2c0.06-0.04,0.1-0.03,0.14,0.03c0.04,0.06,0.08,0.12,0.12,0.18
	c0.04,0.06,0.03,0.1-0.03,0.14c-0.1,0.07-0.2,0.13-0.31,0.2c-0.02,0.01-0.03,0.02-0.02,0.04c0.09,0.23,0.1,0.47,0.01,0.7
	c-0.07,0.17-0.17,0.31-0.3,0.44c-0.03,0.03-0.06,0.06-0.1,0.09c0,0.01,0.02,0.01,0.03,0.01c0.55,0.14,1.09,0.32,1.63,0.49
	c0.03,0.01,0.06,0.03,0.07,0.07c0,0.04-0.01,0.07-0.05,0.09c-0.13,0.08-0.25,0.16-0.38,0.24c-0.03,0.02-0.06,0.03-0.1,0.01
	c-0.45-0.14-0.91-0.28-1.37-0.41c-0.13-0.04-0.26-0.07-0.39-0.1c-0.04-0.01-0.06-0.03-0.08-0.06c-0.05-0.08-0.1-0.15-0.15-0.23
	c-0.04-0.06-0.03-0.1,0.03-0.13c0.12-0.08,0.24-0.15,0.35-0.23c0.13-0.1,0.23-0.21,0.29-0.36c0.04-0.09,0.04-0.19,0.01-0.29
	c0-0.01-0.01-0.01-0.01-0.02c-0.01,0.01-0.02,0.01-0.03,0.02c-0.28,0.18-0.56,0.35-0.83,0.53c-0.07,0.04-0.1,0.03-0.14-0.03
	c-0.04-0.06-0.07-0.11-0.11-0.17c-0.04-0.07-0.04-0.1,0.03-0.15c0.27-0.17,0.54-0.34,0.8-0.51c0.01-0.01,0.02-0.01,0.03-0.02
	c-0.04-0.03-0.08-0.04-0.12-0.05c-0.12-0.03-0.24,0-0.35,0.05c-0.09,0.03-0.17,0.08-0.25,0.13c-0.09,0.06-0.18,0.11-0.27,0.17
	c-0.06,0.04-0.1,0.03-0.14-0.03c-0.05-0.08-0.1-0.16-0.16-0.24c-0.03-0.04-0.03-0.08,0-0.11C95.71,54.19,96.3,53.81,96.89,53.43z"/>
<path class="st1" d="M47.64,76.43c0.05-0.01,0.08,0.01,0.1,0.05c0.04,0.06,0.08,0.12,0.11,0.18c0.04,0.06,0.03,0.1-0.03,0.13
	c-0.15,0.09-0.29,0.19-0.44,0.28c-0.01,0.01-0.02,0.01-0.03,0.02c0,0.01,0.01,0.01,0.02,0.02c0.1,0.04,0.19,0.1,0.27,0.18
	c0.02,0.02,0.03,0.02,0.06,0c0.1-0.07,0.21-0.13,0.31-0.2c0.06-0.04,0.1-0.03,0.14,0.03c0.04,0.06,0.08,0.12,0.12,0.18
	c0.04,0.06,0.03,0.1-0.03,0.14c-0.1,0.07-0.2,0.13-0.31,0.2c-0.02,0.01-0.03,0.02-0.02,0.04c0.09,0.23,0.1,0.47,0.01,0.7
	c-0.07,0.17-0.17,0.31-0.3,0.44c-0.03,0.03-0.06,0.06-0.1,0.09c0,0.01,0.02,0.01,0.03,0.01c0.55,0.14,1.09,0.32,1.63,0.49
	c0.03,0.01,0.06,0.03,0.07,0.07c0,0.04-0.01,0.07-0.05,0.09c-0.13,0.08-0.25,0.16-0.38,0.24c-0.03,0.02-0.06,0.03-0.1,0.01
	c-0.45-0.14-0.91-0.28-1.37-0.41c-0.13-0.04-0.26-0.07-0.39-0.1c-0.04-0.01-0.06-0.03-0.08-0.06c-0.05-0.08-0.1-0.15-0.15-0.23
	c-0.04-0.06-0.03-0.1,0.03-0.13c0.12-0.08,0.24-0.15,0.35-0.23c0.13-0.1,0.23-0.21,0.29-0.36c0.04-0.09,0.04-0.19,0.01-0.29
	c0-0.01-0.01-0.01-0.01-0.02c-0.01,0.01-0.02,0.01-0.03,0.02c-0.28,0.18-0.56,0.35-0.83,0.53c-0.07,0.04-0.1,0.03-0.14-0.03
	c-0.04-0.06-0.07-0.11-0.11-0.17c-0.04-0.07-0.04-0.1,0.03-0.15c0.27-0.17,0.54-0.34,0.8-0.51c0.01-0.01,0.02-0.01,0.03-0.02
	c-0.04-0.03-0.08-0.04-0.12-0.05c-0.12-0.03-0.24,0-0.35,0.05c-0.09,0.03-0.17,0.08-0.25,0.13c-0.09,0.06-0.18,0.11-0.27,0.17
	c-0.06,0.04-0.1,0.03-0.14-0.03c-0.05-0.08-0.1-0.16-0.16-0.24c-0.03-0.04-0.03-0.08,0-0.11C46.46,77.18,47.05,76.8,47.64,76.43z"/>
<path class="st1" d="M40.94,59.47c0-0.04,0.02-0.06,0.06-0.07c0.05-0.02,0.1-0.04,0.16-0.06c0.05-0.02,0.08-0.01,0.1,0.04
	c0.05,0.13,0.1,0.25,0.14,0.38c0,0.01,0.01,0.02,0.01,0.02c0.01,0,0.01-0.01,0.02-0.01c0.05-0.07,0.11-0.13,0.18-0.18
	c0.02-0.01,0.02-0.02,0.01-0.04c-0.04-0.09-0.07-0.18-0.1-0.27c-0.02-0.05-0.01-0.08,0.04-0.1c0.05-0.02,0.1-0.04,0.16-0.06
	c0.05-0.02,0.08-0.01,0.1,0.05c0.03,0.09,0.07,0.18,0.1,0.27c0.01,0.02,0.01,0.02,0.03,0.02c0.19-0.04,0.37,0,0.54,0.11
	c0.12,0.08,0.21,0.18,0.29,0.3c0.02,0.03,0.03,0.06,0.05,0.09c0.01,0,0.01-0.01,0.01-0.02c0.2-0.4,0.42-0.78,0.64-1.17
	c0.01-0.02,0.03-0.04,0.06-0.04c0.03,0,0.05,0.02,0.06,0.05c0.04,0.11,0.08,0.22,0.12,0.33c0.01,0.03,0.01,0.05-0.01,0.08
	c-0.18,0.33-0.37,0.65-0.54,0.99c-0.05,0.09-0.1,0.19-0.14,0.28c-0.01,0.03-0.03,0.05-0.06,0.06c-0.07,0.02-0.13,0.05-0.2,0.07
	c-0.05,0.02-0.08,0-0.1-0.04c-0.04-0.1-0.07-0.21-0.12-0.31c-0.06-0.11-0.12-0.21-0.23-0.28c-0.07-0.04-0.14-0.06-0.22-0.06
	c-0.01,0-0.01,0-0.02,0c0,0.01,0.01,0.02,0.01,0.03c0.09,0.24,0.18,0.48,0.27,0.73c0.02,0.06,0.01,0.08-0.05,0.1
	c-0.05,0.02-0.1,0.04-0.15,0.06c-0.06,0.02-0.08,0.01-0.11-0.05c-0.09-0.23-0.18-0.47-0.26-0.7c0-0.01-0.01-0.02-0.01-0.03
	c-0.03,0.02-0.04,0.05-0.06,0.08c-0.04,0.09-0.04,0.18-0.02,0.28c0.01,0.07,0.04,0.14,0.06,0.21c0.03,0.08,0.06,0.15,0.09,0.23
	c0.02,0.05,0.01,0.08-0.05,0.1c-0.07,0.03-0.14,0.05-0.21,0.08c-0.03,0.01-0.06,0.01-0.09-0.02C41.32,60.5,41.13,59.99,40.94,59.47z
	"/>
<path class="st1" d="M42.65,27.61c0.03,0.03,0.03,0.05,0.02,0.09c-0.02,0.05-0.04,0.11-0.05,0.16c-0.02,0.05-0.04,0.06-0.1,0.05
	c-0.13-0.04-0.26-0.09-0.38-0.13c-0.01,0-0.02-0.01-0.02-0.01c-0.01,0.01,0,0.01,0,0.02c0.02,0.08,0.03,0.17,0.02,0.26
	c0,0.02,0.01,0.03,0.03,0.04c0.09,0.03,0.18,0.06,0.27,0.09c0.05,0.02,0.07,0.04,0.05,0.1c-0.02,0.05-0.04,0.11-0.05,0.16
	c-0.02,0.05-0.04,0.07-0.1,0.05c-0.09-0.03-0.18-0.06-0.27-0.09c-0.02-0.01-0.03-0.01-0.04,0.01c-0.1,0.17-0.24,0.29-0.42,0.35
	c-0.14,0.04-0.28,0.05-0.42,0.03c-0.03,0-0.07-0.01-0.1-0.02c0,0.01,0,0.01,0.01,0.02c0.18,0.41,0.34,0.82,0.5,1.24
	c0.01,0.03,0.01,0.05-0.01,0.07c-0.02,0.02-0.05,0.02-0.08,0.01c-0.11-0.04-0.22-0.08-0.33-0.11c-0.03-0.01-0.05-0.03-0.06-0.06
	c-0.14-0.35-0.27-0.7-0.42-1.04c-0.04-0.1-0.08-0.19-0.13-0.29c-0.01-0.03-0.01-0.05,0-0.08c0.02-0.07,0.05-0.13,0.07-0.2
	c0.02-0.05,0.05-0.06,0.1-0.05c0.1,0.03,0.21,0.08,0.32,0.1c0.12,0.03,0.24,0.04,0.37,0c0.08-0.02,0.14-0.07,0.18-0.13
	c0,0,0-0.01,0.01-0.02c-0.01,0-0.02-0.01-0.03-0.01c-0.25-0.08-0.49-0.16-0.74-0.25c-0.06-0.02-0.07-0.04-0.05-0.1
	c0.02-0.05,0.03-0.1,0.05-0.15c0.02-0.06,0.04-0.07,0.1-0.05c0.24,0.08,0.47,0.16,0.71,0.24c0.01,0,0.02,0.01,0.03,0.01
	c0-0.04-0.01-0.07-0.03-0.1c-0.04-0.09-0.12-0.14-0.2-0.19c-0.06-0.04-0.13-0.06-0.21-0.09c-0.08-0.03-0.16-0.05-0.24-0.08
	c-0.05-0.02-0.07-0.05-0.05-0.1c0.02-0.07,0.05-0.14,0.07-0.22c0.01-0.04,0.03-0.06,0.07-0.06C41.61,27.26,42.13,27.44,42.65,27.61z
	"/>
<path class="st1" d="M138.79,51.08c0.03,0.04,0.02,0.08,0,0.12c-0.04,0.06-0.07,0.12-0.11,0.18c-0.04,0.06-0.07,0.07-0.13,0.03
	c-0.15-0.09-0.29-0.18-0.44-0.27c-0.01-0.01-0.02-0.01-0.03-0.02c-0.01,0.01-0.01,0.02-0.01,0.03c0.01,0.11-0.01,0.22-0.04,0.32
	c-0.01,0.03,0,0.04,0.02,0.05c0.11,0.06,0.21,0.13,0.31,0.19c0.06,0.04,0.07,0.07,0.03,0.13c-0.04,0.06-0.07,0.12-0.11,0.18
	c-0.04,0.06-0.07,0.07-0.14,0.03c-0.1-0.06-0.21-0.13-0.31-0.19c-0.02-0.01-0.03-0.01-0.05,0.01c-0.17,0.19-0.38,0.29-0.63,0.32
	c-0.18,0.02-0.36-0.02-0.53-0.08c-0.04-0.01-0.08-0.03-0.12-0.05c-0.01,0.01,0,0.02,0,0.03c0.11,0.56,0.19,1.12,0.27,1.68
	c0.01,0.04,0,0.07-0.03,0.09c-0.03,0.02-0.07,0.02-0.1,0c-0.13-0.08-0.25-0.16-0.38-0.23c-0.03-0.02-0.05-0.05-0.06-0.09
	c-0.07-0.47-0.14-0.94-0.23-1.41c-0.02-0.13-0.05-0.26-0.08-0.39c-0.01-0.04,0-0.07,0.02-0.1c0.05-0.08,0.09-0.15,0.14-0.23
	c0.03-0.06,0.08-0.07,0.13-0.03c0.12,0.07,0.24,0.15,0.36,0.21c0.14,0.07,0.29,0.12,0.45,0.1c0.1-0.01,0.19-0.05,0.27-0.11
	c0,0,0.01-0.01,0.01-0.02c-0.01-0.01-0.02-0.01-0.03-0.02c-0.28-0.17-0.56-0.34-0.84-0.52c-0.07-0.04-0.08-0.07-0.03-0.14
	c0.03-0.06,0.07-0.11,0.1-0.17c0.04-0.07,0.07-0.08,0.14-0.04c0.27,0.17,0.54,0.33,0.81,0.5c0.01,0.01,0.02,0.01,0.03,0.02
	c0.01-0.05,0-0.09-0.01-0.13c-0.03-0.12-0.11-0.21-0.19-0.3c-0.07-0.06-0.15-0.12-0.23-0.17c-0.09-0.06-0.18-0.11-0.27-0.16
	c-0.06-0.04-0.07-0.08-0.03-0.14c0.05-0.08,0.1-0.16,0.15-0.25c0.02-0.04,0.06-0.06,0.1-0.05C137.6,50.35,138.19,50.71,138.79,51.08
	z"/>
<path class="st1" d="M105.46,21c0.05,0.01,0.07,0.05,0.07,0.09c0.01,0.07,0.02,0.14,0.02,0.21c0.01,0.07-0.02,0.1-0.09,0.11
	c-0.17,0.02-0.34,0.04-0.51,0.06c-0.01,0-0.02,0-0.03,0c0,0.01,0.01,0.02,0.01,0.02c0.07,0.08,0.13,0.18,0.16,0.28
	c0.01,0.03,0.02,0.03,0.05,0.03c0.12-0.02,0.24-0.03,0.36-0.04c0.07-0.01,0.1,0.01,0.11,0.09c0.01,0.07,0.02,0.14,0.02,0.21
	c0.01,0.07-0.02,0.1-0.09,0.11c-0.12,0.01-0.24,0.03-0.36,0.04c-0.02,0-0.03,0.01-0.03,0.03c-0.02,0.25-0.12,0.46-0.3,0.63
	c-0.13,0.12-0.29,0.2-0.46,0.26c-0.04,0.01-0.08,0.02-0.12,0.04c0,0.01,0.01,0.02,0.02,0.02c0.43,0.37,0.84,0.76,1.24,1.16
	c0.03,0.03,0.04,0.05,0.03,0.09c-0.01,0.04-0.04,0.05-0.08,0.06c-0.15,0.02-0.3,0.03-0.45,0.05c-0.04,0-0.07,0-0.1-0.03
	c-0.34-0.33-0.69-0.66-1.05-0.97c-0.1-0.09-0.2-0.18-0.3-0.26c-0.03-0.03-0.05-0.05-0.05-0.09c-0.01-0.09-0.02-0.18-0.03-0.27
	c-0.01-0.07,0.02-0.1,0.09-0.11c0.14-0.02,0.28-0.03,0.42-0.05c0.16-0.03,0.3-0.09,0.42-0.2c0.07-0.07,0.12-0.15,0.14-0.25
	c0-0.01,0-0.01,0-0.02c-0.01,0-0.03,0-0.04,0c-0.33,0.04-0.66,0.07-0.98,0.11c-0.08,0.01-0.11-0.01-0.11-0.09
	c-0.01-0.07-0.02-0.13-0.02-0.2c-0.01-0.08,0.01-0.11,0.09-0.12c0.32-0.04,0.63-0.07,0.95-0.11c0.01,0,0.02,0,0.04,0
	c-0.02-0.04-0.05-0.07-0.09-0.1c-0.1-0.08-0.21-0.1-0.34-0.11c-0.1-0.01-0.19,0-0.28,0.01c-0.1,0.01-0.21,0.02-0.31,0.04
	c-0.07,0.01-0.11-0.02-0.11-0.09c-0.01-0.1-0.02-0.19-0.03-0.29c-0.01-0.05,0.01-0.08,0.05-0.1C104.07,21.16,104.76,21.08,105.46,21
	z"/>
<path class="st1" d="M116.52,88.96c0.05-0.01,0.08,0.01,0.1,0.05c0.04,0.06,0.08,0.12,0.11,0.18c0.04,0.06,0.03,0.1-0.03,0.13
	c-0.15,0.09-0.29,0.19-0.44,0.28c-0.01,0.01-0.02,0.01-0.03,0.02c0,0.01,0.01,0.01,0.02,0.02c0.1,0.04,0.19,0.1,0.27,0.18
	c0.02,0.02,0.03,0.02,0.06,0c0.1-0.07,0.21-0.13,0.31-0.2c0.06-0.04,0.1-0.03,0.14,0.03c0.04,0.06,0.08,0.12,0.12,0.18
	c0.04,0.06,0.03,0.1-0.03,0.14c-0.1,0.07-0.2,0.13-0.31,0.2c-0.02,0.01-0.03,0.02-0.02,0.04c0.09,0.23,0.1,0.47,0.01,0.7
	c-0.07,0.17-0.17,0.31-0.3,0.44c-0.03,0.03-0.06,0.06-0.1,0.09c0,0.01,0.02,0.01,0.03,0.01c0.55,0.14,1.09,0.32,1.63,0.49
	c0.03,0.01,0.06,0.03,0.07,0.07c0,0.04-0.01,0.07-0.05,0.09c-0.13,0.08-0.25,0.16-0.38,0.24c-0.03,0.02-0.06,0.03-0.1,0.01
	c-0.45-0.14-0.91-0.29-1.37-0.41c-0.13-0.04-0.26-0.07-0.39-0.1c-0.04-0.01-0.06-0.03-0.08-0.06c-0.05-0.08-0.1-0.15-0.15-0.23
	c-0.04-0.06-0.03-0.1,0.03-0.13c0.12-0.08,0.24-0.15,0.35-0.23c0.13-0.1,0.23-0.21,0.29-0.36c0.04-0.09,0.04-0.19,0.01-0.29
	c0-0.01-0.01-0.01-0.01-0.02c-0.01,0.01-0.02,0.01-0.03,0.02c-0.28,0.18-0.56,0.35-0.83,0.53c-0.07,0.04-0.1,0.03-0.14-0.03
	c-0.04-0.06-0.07-0.11-0.11-0.17c-0.04-0.07-0.04-0.1,0.03-0.15c0.27-0.17,0.54-0.34,0.8-0.51c0.01-0.01,0.02-0.01,0.03-0.02
	c-0.04-0.03-0.08-0.04-0.12-0.05c-0.12-0.03-0.24,0-0.35,0.05c-0.09,0.03-0.17,0.08-0.25,0.13c-0.09,0.06-0.18,0.11-0.27,0.17
	c-0.06,0.04-0.1,0.03-0.14-0.03c-0.05-0.08-0.1-0.16-0.16-0.24c-0.03-0.04-0.03-0.08,0-0.11C115.34,89.71,115.93,89.33,116.52,88.96
	z"/>
<path class="st1" d="M123.62,73.08c0.04,0.02,0.06,0.05,0.07,0.1c0,0.07,0.01,0.14,0.01,0.21c0,0.07-0.02,0.1-0.09,0.1
	c-0.17,0.01-0.34,0.02-0.52,0.03c-0.01,0-0.02,0-0.03,0c0,0.01,0,0.02,0.01,0.02c0.07,0.09,0.12,0.18,0.15,0.29
	c0.01,0.03,0.02,0.03,0.05,0.03c0.12-0.01,0.24-0.02,0.37-0.03c0.07,0,0.1,0.02,0.1,0.09c0,0.07,0.01,0.14,0.01,0.21
	c0,0.07-0.02,0.1-0.09,0.1c-0.12,0.01-0.24,0.02-0.36,0.02c-0.02,0-0.03,0.01-0.04,0.03c-0.03,0.25-0.14,0.46-0.33,0.62
	c-0.14,0.12-0.3,0.19-0.48,0.24c-0.04,0.01-0.08,0.02-0.13,0.03c0,0.01,0.01,0.02,0.02,0.02c0.41,0.39,0.8,0.8,1.19,1.21
	c0.02,0.03,0.04,0.05,0.03,0.09c-0.02,0.04-0.04,0.05-0.08,0.05c-0.15,0.01-0.3,0.02-0.45,0.03c-0.04,0-0.07-0.01-0.1-0.04
	c-0.33-0.35-0.66-0.69-1-1.02c-0.1-0.09-0.19-0.19-0.29-0.28c-0.03-0.03-0.04-0.06-0.05-0.09c0-0.09-0.01-0.18-0.02-0.27
	c0-0.07,0.02-0.1,0.09-0.1c0.14-0.01,0.28-0.01,0.42-0.04c0.16-0.03,0.31-0.07,0.43-0.18c0.08-0.07,0.13-0.15,0.15-0.25
	c0-0.01,0-0.01,0-0.02c-0.01,0-0.03,0-0.04,0c-0.33,0.02-0.66,0.04-0.99,0.07c-0.08,0.01-0.1-0.02-0.11-0.1
	c0-0.07-0.01-0.13-0.01-0.2c-0.01-0.08,0.02-0.11,0.1-0.11c0.32-0.02,0.63-0.04,0.95-0.06c0.01,0,0.02,0,0.04,0
	c-0.02-0.04-0.05-0.07-0.08-0.1c-0.09-0.08-0.21-0.11-0.33-0.13c-0.09-0.01-0.19-0.01-0.28,0c-0.11,0.01-0.21,0.01-0.32,0.02
	c-0.07,0-0.1-0.02-0.11-0.1c-0.01-0.1-0.01-0.19-0.02-0.29c0-0.05,0.01-0.08,0.06-0.1C122.23,73.17,122.93,73.12,123.62,73.08z"/>
<path class="st1" d="M143.66,79.37c0.05-0.01,0.08,0.02,0.1,0.06c0.03,0.06,0.07,0.12,0.11,0.18c0.03,0.06,0.03,0.1-0.03,0.13
	c-0.15,0.09-0.3,0.17-0.45,0.26c-0.01,0.01-0.02,0.01-0.03,0.02c0,0.01,0.01,0.01,0.02,0.02c0.1,0.05,0.19,0.11,0.27,0.19
	c0.02,0.02,0.03,0.02,0.06,0.01c0.1-0.06,0.21-0.12,0.32-0.19c0.06-0.04,0.1-0.03,0.13,0.03c0.04,0.06,0.07,0.12,0.11,0.18
	c0.04,0.06,0.03,0.1-0.04,0.13c-0.1,0.06-0.21,0.12-0.31,0.18c-0.02,0.01-0.03,0.02-0.02,0.04c0.09,0.24,0.08,0.47-0.02,0.7
	c-0.07,0.17-0.18,0.31-0.32,0.43c-0.03,0.03-0.07,0.06-0.1,0.08c0,0.01,0.02,0.01,0.02,0.01c0.54,0.16,1.08,0.36,1.61,0.55
	c0.03,0.01,0.06,0.03,0.06,0.07c0,0.04-0.02,0.07-0.05,0.08c-0.13,0.08-0.26,0.15-0.39,0.23c-0.03,0.02-0.07,0.02-0.1,0.01
	c-0.45-0.16-0.9-0.32-1.35-0.46c-0.13-0.04-0.26-0.08-0.38-0.12c-0.04-0.01-0.06-0.03-0.08-0.06c-0.04-0.08-0.09-0.16-0.14-0.23
	c-0.03-0.06-0.02-0.1,0.03-0.13c0.12-0.07,0.25-0.14,0.36-0.22c0.13-0.09,0.24-0.2,0.3-0.35c0.04-0.09,0.05-0.19,0.02-0.29
	c0-0.01,0-0.01-0.01-0.02c-0.01,0.01-0.02,0.01-0.03,0.02c-0.28,0.17-0.57,0.33-0.85,0.5c-0.07,0.04-0.1,0.03-0.14-0.04
	c-0.03-0.06-0.07-0.12-0.1-0.17c-0.04-0.07-0.03-0.1,0.04-0.14c0.27-0.16,0.55-0.32,0.82-0.48c0.01-0.01,0.02-0.01,0.04-0.02
	c-0.04-0.03-0.08-0.04-0.12-0.05c-0.12-0.03-0.24-0.01-0.35,0.03c-0.09,0.03-0.17,0.08-0.26,0.12c-0.09,0.05-0.18,0.11-0.27,0.16
	c-0.06,0.04-0.1,0.03-0.14-0.04c-0.05-0.08-0.1-0.17-0.15-0.25c-0.02-0.04-0.03-0.08,0.01-0.11
	C142.46,80.08,143.06,79.73,143.66,79.37z"/>
<path class="st1" d="M142.61,66.05c0.04,0.06,0.04,0.11,0,0.17c-0.05,0.09-0.1,0.18-0.16,0.27c-0.05,0.09-0.1,0.1-0.19,0.05
	c-0.22-0.13-0.44-0.25-0.66-0.38c-0.01-0.01-0.03-0.02-0.04-0.02c-0.02,0.01-0.01,0.03-0.01,0.04c0.02,0.16,0,0.32-0.05,0.48
	c-0.01,0.04,0,0.06,0.03,0.08c0.16,0.09,0.31,0.18,0.47,0.27c0.09,0.05,0.11,0.1,0.05,0.2c-0.05,0.09-0.1,0.18-0.16,0.27
	c-0.05,0.09-0.1,0.1-0.2,0.05c-0.15-0.09-0.31-0.18-0.46-0.27c-0.03-0.02-0.04-0.02-0.07,0.01c-0.24,0.28-0.54,0.44-0.91,0.48
	c-0.26,0.03-0.52-0.01-0.77-0.1c-0.06-0.02-0.12-0.04-0.18-0.07c-0.01,0.01,0,0.03,0,0.04c0.18,0.81,0.32,1.63,0.46,2.44
	c0.01,0.05,0.01,0.1-0.04,0.13c-0.05,0.03-0.1,0.03-0.14,0c-0.19-0.11-0.38-0.22-0.57-0.33c-0.05-0.03-0.08-0.07-0.09-0.12
	c-0.12-0.69-0.25-1.37-0.39-2.06c-0.04-0.19-0.08-0.38-0.13-0.57c-0.01-0.05-0.01-0.1,0.02-0.15c0.07-0.11,0.13-0.23,0.2-0.34
	c0.05-0.08,0.11-0.1,0.2-0.05c0.18,0.1,0.35,0.21,0.54,0.3c0.21,0.1,0.43,0.16,0.67,0.13c0.15-0.02,0.28-0.08,0.39-0.18
	c0.01-0.01,0.01-0.01,0.02-0.02c-0.02-0.01-0.03-0.02-0.05-0.03c-0.42-0.24-0.84-0.48-1.26-0.72c-0.1-0.06-0.11-0.11-0.06-0.21
	c0.05-0.08,0.1-0.17,0.15-0.25c0.06-0.1,0.11-0.12,0.21-0.06c0.4,0.23,0.81,0.46,1.21,0.7c0.02,0.01,0.03,0.02,0.05,0.03
	c0.01-0.07,0-0.13-0.02-0.19c-0.05-0.18-0.16-0.31-0.3-0.43c-0.11-0.09-0.22-0.17-0.34-0.24c-0.13-0.08-0.27-0.15-0.4-0.23
	c-0.09-0.05-0.11-0.11-0.06-0.21c0.07-0.12,0.14-0.24,0.21-0.37c0.03-0.06,0.08-0.09,0.15-0.08
	C140.84,65.03,141.73,65.54,142.61,66.05z"/>
<path class="st1" d="M131.27,38.03c0.06,0.04,0.07,0.09,0.06,0.16c-0.02,0.1-0.03,0.21-0.05,0.31c-0.02,0.1-0.06,0.13-0.16,0.12
	c-0.25-0.04-0.5-0.08-0.75-0.12c-0.02,0-0.03-0.01-0.05-0.01c-0.01,0.02,0,0.03,0.01,0.04c0.07,0.15,0.11,0.3,0.12,0.46
	c0,0.04,0.02,0.05,0.06,0.06c0.18,0.03,0.35,0.05,0.53,0.08c0.11,0.02,0.14,0.06,0.12,0.16c-0.02,0.1-0.03,0.21-0.05,0.31
	c-0.02,0.1-0.06,0.13-0.17,0.12c-0.18-0.03-0.35-0.05-0.53-0.08c-0.03-0.01-0.05,0-0.06,0.03c-0.12,0.35-0.34,0.61-0.67,0.78
	c-0.24,0.12-0.49,0.18-0.76,0.19c-0.06,0-0.13,0-0.19,0c-0.01,0.02,0.01,0.03,0.02,0.04c0.46,0.69,0.88,1.4,1.3,2.12
	c0.03,0.05,0.04,0.09,0.01,0.14c-0.03,0.05-0.08,0.06-0.14,0.05c-0.22-0.04-0.43-0.07-0.65-0.1c-0.06-0.01-0.1-0.03-0.13-0.08
	c-0.36-0.6-0.72-1.2-1.1-1.78c-0.11-0.16-0.22-0.33-0.32-0.49c-0.03-0.05-0.04-0.09-0.03-0.15c0.02-0.13,0.04-0.26,0.06-0.39
	c0.02-0.1,0.07-0.13,0.16-0.12c0.2,0.03,0.41,0.07,0.61,0.09c0.23,0.01,0.46,0,0.67-0.12c0.13-0.07,0.23-0.17,0.3-0.3
	c0-0.01,0.01-0.02,0.01-0.03c-0.02,0-0.04-0.01-0.06-0.01c-0.48-0.08-0.95-0.15-1.43-0.23c-0.11-0.02-0.14-0.06-0.13-0.17
	c0.02-0.1,0.03-0.19,0.05-0.29c0.02-0.12,0.06-0.15,0.17-0.13c0.46,0.07,0.92,0.14,1.38,0.22c0.02,0,0.04,0.01,0.06,0.01
	c-0.01-0.07-0.05-0.12-0.08-0.17c-0.11-0.15-0.26-0.23-0.43-0.29c-0.13-0.05-0.27-0.08-0.41-0.1c-0.15-0.02-0.3-0.05-0.46-0.07
	c-0.11-0.02-0.14-0.07-0.13-0.17c0.02-0.14,0.05-0.28,0.07-0.42c0.01-0.07,0.04-0.11,0.11-0.12
	C129.25,37.71,130.26,37.87,131.27,38.03z"/>
<path class="st1" d="M64.89,24.22c0.05,0.04,0.06,0.1,0.04,0.16c-0.03,0.1-0.05,0.2-0.08,0.3c-0.03,0.1-0.08,0.13-0.17,0.1
	c-0.24-0.07-0.49-0.13-0.73-0.2c-0.02,0-0.03-0.01-0.05-0.01c-0.01,0.02,0,0.03,0,0.04c0.06,0.15,0.08,0.31,0.07,0.47
	c0,0.04,0.01,0.06,0.05,0.07c0.17,0.04,0.35,0.09,0.52,0.14c0.1,0.03,0.13,0.07,0.1,0.18c-0.03,0.1-0.05,0.2-0.08,0.3
	c-0.03,0.1-0.07,0.13-0.18,0.1c-0.17-0.05-0.34-0.09-0.51-0.14c-0.03-0.01-0.05-0.01-0.06,0.03c-0.16,0.33-0.41,0.57-0.75,0.7
	c-0.25,0.1-0.51,0.12-0.77,0.1c-0.06,0-0.13-0.01-0.19-0.02c-0.01,0.02,0.01,0.03,0.01,0.04c0.38,0.74,0.73,1.49,1.07,2.25
	c0.02,0.05,0.03,0.09-0.01,0.14c-0.04,0.04-0.09,0.05-0.14,0.03c-0.21-0.06-0.42-0.12-0.63-0.17c-0.06-0.01-0.09-0.04-0.12-0.1
	c-0.29-0.63-0.59-1.27-0.9-1.89c-0.09-0.17-0.18-0.35-0.27-0.52c-0.03-0.05-0.03-0.1-0.02-0.15c0.04-0.13,0.07-0.26,0.11-0.38
	c0.03-0.09,0.08-0.12,0.18-0.1c0.2,0.05,0.39,0.12,0.6,0.15c0.23,0.04,0.46,0.05,0.68-0.04c0.14-0.05,0.25-0.14,0.33-0.27
	c0.01-0.01,0.01-0.02,0.01-0.03c-0.02-0.01-0.04-0.01-0.05-0.01c-0.47-0.13-0.93-0.25-1.4-0.38c-0.11-0.03-0.14-0.07-0.11-0.19
	c0.03-0.09,0.05-0.19,0.08-0.28c0.03-0.12,0.07-0.14,0.19-0.11c0.45,0.12,0.9,0.24,1.35,0.36c0.02,0,0.03,0.01,0.06,0.02
	c-0.01-0.07-0.03-0.12-0.06-0.18c-0.09-0.16-0.24-0.26-0.39-0.34c-0.13-0.06-0.26-0.1-0.39-0.14c-0.15-0.04-0.3-0.08-0.45-0.12
	c-0.1-0.03-0.13-0.08-0.11-0.18c0.04-0.14,0.08-0.27,0.11-0.41c0.02-0.07,0.05-0.11,0.13-0.11C62.91,23.68,63.9,23.95,64.89,24.22z"
	/>
<path class="st1" d="M90.13,18.7c0.07-0.02,0.12,0,0.16,0.05c0.07,0.08,0.14,0.16,0.21,0.23c0.07,0.08,0.06,0.13-0.01,0.2
	c-0.19,0.17-0.38,0.34-0.56,0.51c-0.01,0.01-0.02,0.02-0.04,0.03c0.01,0.02,0.02,0.02,0.03,0.02c0.16,0.04,0.3,0.1,0.44,0.2
	c0.03,0.02,0.05,0.02,0.08-0.01c0.13-0.12,0.27-0.24,0.4-0.36c0.08-0.07,0.13-0.07,0.2,0.01c0.07,0.08,0.14,0.16,0.21,0.23
	c0.07,0.08,0.07,0.13-0.01,0.2c-0.13,0.12-0.26,0.24-0.4,0.36c-0.03,0.02-0.03,0.04-0.01,0.07c0.19,0.31,0.25,0.65,0.18,1.01
	c-0.06,0.26-0.17,0.49-0.33,0.7c-0.04,0.05-0.08,0.1-0.12,0.15c0.01,0.02,0.03,0.01,0.04,0.01c0.83,0.08,1.65,0.2,2.47,0.33
	c0.05,0.01,0.1,0.02,0.11,0.08c0.02,0.06-0.01,0.1-0.05,0.14c-0.16,0.15-0.33,0.29-0.49,0.44c-0.04,0.04-0.09,0.05-0.14,0.04
	c-0.69-0.1-1.38-0.2-2.08-0.27c-0.19-0.02-0.39-0.04-0.58-0.06c-0.06-0.01-0.1-0.02-0.14-0.07c-0.09-0.1-0.18-0.2-0.27-0.3
	c-0.06-0.07-0.06-0.14,0.01-0.2c0.15-0.14,0.31-0.27,0.45-0.42c0.16-0.17,0.29-0.36,0.33-0.59c0.03-0.15,0.01-0.29-0.05-0.42
	c0-0.01-0.01-0.02-0.02-0.03c-0.02,0.01-0.03,0.03-0.04,0.04c-0.36,0.32-0.72,0.64-1.08,0.97c-0.09,0.08-0.14,0.07-0.21-0.01
	c-0.07-0.07-0.13-0.15-0.2-0.22c-0.08-0.09-0.08-0.14,0.01-0.22c0.35-0.31,0.69-0.62,1.04-0.93c0.01-0.01,0.03-0.02,0.04-0.04
	c-0.06-0.03-0.12-0.04-0.18-0.04c-0.18-0.01-0.34,0.06-0.5,0.15c-0.12,0.07-0.23,0.16-0.33,0.25c-0.12,0.1-0.23,0.21-0.34,0.31
	c-0.08,0.07-0.14,0.07-0.21-0.01c-0.09-0.1-0.19-0.21-0.28-0.31c-0.05-0.05-0.06-0.1-0.03-0.17C88.6,20.07,89.37,19.38,90.13,18.7z"
	/>
<path class="st1" d="M56.82,88.36c0.04,0.06,0.04,0.12,0,0.18c-0.06,0.1-0.12,0.2-0.17,0.29c-0.06,0.09-0.11,0.11-0.21,0.05
	c-0.24-0.14-0.47-0.28-0.71-0.42c-0.02-0.01-0.03-0.02-0.04-0.03c-0.02,0.01-0.01,0.03-0.01,0.04c0.01,0.18,0,0.35-0.06,0.51
	c-0.01,0.04,0,0.06,0.03,0.08c0.17,0.1,0.34,0.2,0.5,0.3c0.1,0.06,0.11,0.11,0.05,0.21c-0.06,0.1-0.11,0.2-0.17,0.29
	c-0.06,0.1-0.12,0.11-0.21,0.05c-0.17-0.1-0.33-0.2-0.5-0.29c-0.03-0.02-0.05-0.02-0.07,0.01c-0.26,0.3-0.59,0.48-0.99,0.51
	c-0.29,0.03-0.57-0.02-0.84-0.12c-0.06-0.02-0.13-0.05-0.19-0.07c-0.01,0.01,0,0.03,0,0.04c0.19,0.88,0.33,1.77,0.47,2.66
	c0.01,0.06,0.01,0.11-0.05,0.14c-0.05,0.04-0.1,0.03-0.16,0c-0.2-0.12-0.41-0.24-0.61-0.36c-0.05-0.03-0.08-0.07-0.09-0.13
	c-0.12-0.75-0.25-1.49-0.4-2.24c-0.04-0.21-0.09-0.42-0.13-0.62c-0.01-0.06-0.01-0.11,0.03-0.16c0.08-0.12,0.15-0.25,0.22-0.37
	c0.05-0.09,0.12-0.11,0.21-0.05c0.19,0.11,0.38,0.24,0.58,0.33c0.23,0.11,0.47,0.18,0.72,0.15c0.16-0.02,0.3-0.08,0.42-0.19
	c0.01-0.01,0.01-0.02,0.02-0.03c-0.02-0.01-0.04-0.02-0.05-0.03c-0.45-0.27-0.9-0.53-1.35-0.8c-0.11-0.06-0.12-0.12-0.06-0.22
	c0.05-0.09,0.11-0.18,0.16-0.27c0.07-0.11,0.12-0.13,0.23-0.06c0.43,0.26,0.87,0.51,1.3,0.77c0.02,0.01,0.03,0.02,0.06,0.03
	c0.01-0.07,0-0.14-0.02-0.2c-0.05-0.19-0.17-0.34-0.32-0.47c-0.11-0.1-0.24-0.18-0.37-0.26c-0.14-0.09-0.29-0.17-0.43-0.26
	c-0.1-0.06-0.12-0.12-0.06-0.22c0.08-0.13,0.16-0.26,0.23-0.4c0.04-0.07,0.09-0.1,0.16-0.08C54.91,87.23,55.86,87.8,56.82,88.36z"/>
<text transform="matrix(1 0 0 1 162.4854 65.1675)"><tspan x="0" y="0" class="st2 st3">Dhanvriksha</tspan><tspan x="0" y="50" class="st4 st3 st5">Nidhi Limited</tspan></text>
</svg>
